<svg width="24" height="24" viewBox="0 0 24 24" fill="none" xmlns="http://www.w3.org/2000/svg">
<path d="M19.2729 19.1429C20.8614 17.3901 21.8803 15.0427 22.0002 12.4762H19.2729V19.1429Z" fill="#F5A621"/>
<path d="M21.5 8.57277H9.14435C8.83826 8.57277 8.59338 8.32238 8.59338 8.00939C8.59338 7.6964 8.83826 7.44601 9.14435 7.44601L21 7.5C20.6408 6.63706 19.6852 5.5 19.6852 5.5L10.9503 5.31769C10.7666 5.72457 10.3381 6.03756 9.84836 6.03756C9.17496 6.03756 8.59338 5.47418 8.59338 4.75431C8.59338 4.03443 9.14435 3.47105 9.84836 3.47105C10.3381 3.47105 10.7666 3.75274 10.9503 4.19093L18.3751 4.19093C15.5 2 13.7812 2 11.2564 2C9.5 2 7.83309 2.7492 6.26709 3.75001V10.8576H14.9601C15.2662 10.8576 15.511 11.108 15.511 11.421V14.989C16.1538 15.2081 16.613 15.8341 16.613 16.5853C16.613 17.5243 15.8784 18.2754 14.9601 18.2754C14.0418 18.2754 13.3072 17.5243 13.3072 16.5853C13.3072 15.8341 13.7663 15.2081 14.4091 14.989V11.9844H5.71613C5.41003 11.9844 5.16516 11.734 5.16516 11.421V4.75431C4.67542 5.16119 4.21628 5.59938 3.81836 6.10016V17.7434H7.61389C7.91998 17.7434 8.16486 17.9937 8.16486 18.3067V21.374C9.26678 21.7809 10.4605 22 11.6849 22C13.4602 22 15.5308 21.5305 17 20.7481H11.2564C10.9503 20.7481 10.7054 20.4977 10.7054 20.1847V15.1768H7.52206C7.3078 15.5837 6.90988 15.8967 6.42014 15.8967C5.74673 15.8967 5.16516 15.3333 5.16516 14.6135C5.16516 13.9249 5.71613 13.3302 6.42014 13.3302C6.90988 13.3302 7.33841 13.6119 7.52206 14.0501H11.2564C11.5625 14.0501 11.8073 14.3005 11.8073 14.6135V19.6213H18.1128V11.421C18.1128 11.108 18.3577 10.8576 18.6638 10.8576H22.0002C21.9696 10.0751 21.7143 9.29265 21.5 8.57277Z" fill="#F5A621"/>
<path d="M7.45432 21.0476V19.1428H4.72705C5.50184 19.8869 6.4316 20.5416 7.45432 21.0476Z" fill="#F5A621"/>
<path d="M2.90909 16.5V7.5C2.33058 9.03693 2 10.0867 2 12C2 13.9133 2.33058 14.9631 2.90909 16.5Z" fill="#F5A621"/>
</svg>
