<svg width="48" height="48" viewBox="0 0 48 48" fill="none" xmlns="http://www.w3.org/2000/svg">
<path d="M0 24C0 10.7452 10.7452 0 24 0V0C37.2548 0 48 10.7452 48 24V24C48 37.2548 37.2548 48 24 48V48C10.7452 48 0 37.2548 0 24V24Z" fill="#F5A621" fill-opacity="0.1"/>
<path d="M27.1134 30.0572C27.7912 30.0604 28.4441 29.8034 28.9365 29.3398C29.4288 28.8762 29.7226 28.2415 29.7569 27.5678C29.7569 27.5566 29.7569 27.5453 29.7569 27.5319L32.3213 24.665C32.5817 24.3646 32.9484 24.1754 33.3452 24.137C33.7421 24.0985 34.1385 24.2136 34.4523 24.4583C34.6077 24.5862 34.7357 24.7437 34.8289 24.9216C34.9221 25.0996 34.9786 25.2942 34.995 25.4942C35.0114 25.6942 34.9874 25.8954 34.9245 26.086C34.8615 26.2766 34.7608 26.4527 34.6284 26.604L29.5086 32.4455C29.1712 32.8303 28.7548 33.1388 28.2875 33.35C27.8202 33.5612 27.3129 33.6703 26.7997 33.6699H19.1041L17.7677 35L13 30.374L16.4155 27.0039C17.1091 26.3178 17.9828 25.8399 18.9365 25.6249C19.8903 25.41 20.8856 25.4666 21.8085 25.7884L22.5579 26.0513H27.1744C27.3692 26.0512 27.562 26.09 27.7414 26.1655C27.9207 26.241 28.0831 26.3517 28.2187 26.4908C28.3543 26.63 28.4604 26.7948 28.5307 26.9756C28.6011 27.1563 28.6342 27.3493 28.6282 27.5431C28.6033 27.9241 28.4322 28.281 28.1502 28.5399C27.8682 28.7988 27.497 28.9398 27.1134 28.9338H24.3436C24.1939 28.9338 24.0503 28.993 23.9445 29.0983C23.8387 29.2037 23.7792 29.3465 23.7792 29.4955C23.7792 29.6445 23.8387 29.7873 23.9445 29.8927C24.0503 29.998 24.1939 30.0572 24.3436 30.0572H27.1134ZM24.3187 19.3088C24.6913 19.519 25.08 19.6993 25.4813 19.848C25.6529 19.9154 25.8244 19.9851 25.9937 20.0592C26.1959 20.1452 26.385 20.2586 26.5558 20.3962C26.6553 20.464 26.7339 20.5579 26.7828 20.6675C26.8317 20.7771 26.8491 20.8981 26.8329 21.017C26.8167 21.1358 26.7677 21.2478 26.6913 21.3406C26.6149 21.4333 26.514 21.5031 26.4001 21.5421C26.0938 21.6703 25.7584 21.7137 25.4294 21.6679C24.8863 21.6087 24.3586 21.4519 23.8718 21.2051C23.7701 21.1425 23.6546 21.1055 23.5354 21.0972C23.2645 21.0972 23.181 21.3691 23.1336 21.5151C23.0455 21.796 22.9665 22.079 22.8898 22.3621C22.7634 22.825 22.8424 22.998 23.2781 23.2092C23.7568 23.4255 24.2649 23.5709 24.786 23.6405C24.8688 23.6496 24.9505 23.6669 25.0298 23.6922C25.0469 23.7787 25.0538 23.867 25.0501 23.9551V24.51C25.0456 24.5808 25.0561 24.6518 25.0811 24.7183C25.1061 24.7848 25.1449 24.8452 25.195 24.8957C25.2451 24.9462 25.3053 24.9856 25.3718 25.0113C25.4383 25.037 25.5094 25.0484 25.5806 25.0447H25.9644H26.4159C26.4855 25.0486 26.555 25.0374 26.6199 25.0121C26.6848 24.9868 26.7434 24.9479 26.7918 24.898C26.8402 24.8481 26.8772 24.7885 26.9004 24.7231C26.9236 24.6577 26.9323 24.5881 26.9261 24.519C26.9261 24.4359 26.9261 24.3505 26.9261 24.2674C26.9261 24.0966 26.9261 23.9236 26.9261 23.7529C26.9261 23.5821 26.9667 23.5282 27.1518 23.4765C27.75 23.3202 28.2834 22.9797 28.6756 22.5037C28.9287 22.1998 29.1113 21.8442 29.2104 21.462C29.3095 21.0799 29.3227 20.6807 29.249 20.2929C29.1661 19.8795 28.9926 19.4894 28.7409 19.1504C28.4893 18.8114 28.1656 18.5318 27.7929 18.3315C27.3684 18.1086 26.9313 17.9106 26.4836 17.7384L26.312 17.6687C26.0499 17.564 25.8037 17.4234 25.5806 17.2508C25.5035 17.1952 25.4421 17.1207 25.4025 17.0344C25.363 16.9482 25.3466 16.8532 25.3549 16.7588C25.3729 16.6623 25.4159 16.5722 25.4797 16.4973C25.5434 16.4225 25.6257 16.3654 25.7183 16.3319C25.8535 16.2785 25.9973 16.2503 26.1427 16.2488C26.7398 16.2128 27.3361 16.3304 27.8742 16.5903C28.4295 16.8576 28.5514 16.4555 28.5966 16.2847C28.6711 16.06 28.7365 15.8354 28.802 15.5995L28.8787 15.3299C28.9021 15.2665 28.9125 15.1991 28.9092 15.1317C28.9059 15.0643 28.889 14.9982 28.8595 14.9374C28.83 14.8766 28.7886 14.8223 28.7376 14.7778C28.6866 14.7333 28.6271 14.6995 28.5627 14.6783C28.1802 14.5104 27.7772 14.3933 27.364 14.3301C26.9915 14.2717 26.9915 14.2717 26.9915 13.8987C26.9915 13.1146 26.9306 13 26.1608 13H25.7454C25.2939 13.0135 25.172 13.146 25.1608 13.5864C25.1608 13.6897 25.1608 13.7908 25.1608 13.892V14.056C25.1608 14.3862 25.1608 14.3862 24.8312 14.5053C23.6302 14.9389 22.9846 15.7567 22.9124 16.934C22.8469 17.9248 23.3097 18.7067 24.3187 19.3088Z" fill="#F5A621"/>
</svg>
