<svg width="48" height="48" viewBox="0 0 48 48" fill="none" xmlns="http://www.w3.org/2000/svg">
<path d="M0 24C0 10.7452 10.7452 0 24 0V0C37.2548 0 48 10.7452 48 24V24C48 37.2548 37.2548 48 24 48V48C10.7452 48 0 37.2548 0 24V24Z" fill="#F5A621" fill-opacity="0.1"/>
<path d="M23.9997 36C22.5459 36 21.1516 35.74 19.8608 35.2644C19.813 35.2486 19.7842 35.2381 19.776 35.2353C19.7614 35.2302 19.7474 35.2238 19.7339 35.2169C15.2169 33.4932 12 29.1152 12 24.0001C12 19.5463 14.4463 15.4817 18.3838 13.3927C19.5004 12.7747 20.6891 12.367 21.9171 12.1806C22.6001 12.0605 23.3007 12 23.9997 12C25.287 12 26.5536 12.2028 27.7648 12.6025C27.8179 12.6086 27.87 12.6222 27.9195 12.6426C27.9852 12.6697 28.0498 12.6965 28.1142 12.7243C29.4747 13.2206 30.7235 13.9539 31.8261 14.9032C35.129 17.5671 35.9073 20.9209 35.978 23.2676C35.9928 23.51 36 23.7565 36 23.9999C36 28.8169 33.1471 32.98 29.0421 34.8887C29.0232 34.9 29.003 34.9107 28.9821 34.9196C28.9317 34.9416 28.8814 34.9633 28.8309 34.9842C27.352 35.6373 25.7176 36 23.9997 36ZM20.2023 34.7069C20.7358 34.868 22.2244 35.2598 24.0881 35.2603C25.6954 35.2603 27.1988 34.9748 28.5586 34.4114C28.4671 34.2775 28.3027 34.0931 28.2199 34.0009C28.1719 33.9468 28.1282 33.8982 28.0932 33.8571C27.9867 33.7312 27.8623 33.6888 27.5987 33.6888C27.5377 33.6888 27.4751 33.6906 27.4123 33.6929C27.4066 33.6931 27.401 33.6933 27.3953 33.6934C27.3293 33.6956 27.2625 33.6977 27.1952 33.6977C26.691 33.6977 26.3179 33.662 25.8952 33.4796C25.5549 33.333 25.3481 33.2847 25.0449 33.4551C24.3949 33.8196 23.7957 34.1153 22.9303 34.0604C22.6954 34.0456 22.4737 34.0183 22.3424 33.8456C22.2152 33.6781 22.254 33.4919 22.2885 33.3284C22.2997 33.2753 22.3128 33.2135 22.3237 33.1412L22.3278 33.1149C22.3894 32.7068 22.3516 32.6942 22.2831 32.671C22.1156 32.6143 21.8952 32.7162 21.7391 32.9047C21.6729 32.9844 21.6262 33.0539 21.5805 33.1205L21.5799 33.1213C21.4468 33.3162 21.3207 33.5008 20.9172 33.6472C20.3259 33.862 20.2179 34.0492 20.2023 34.7069ZM13.7731 19.0314C13.0352 20.5516 12.6334 22.2437 12.6334 24.0001C12.6334 28.7002 15.5014 32.743 19.5788 34.4714C19.6258 33.8155 19.8337 33.3662 20.7006 33.0511C20.9126 32.9737 20.946 32.9246 21.0569 32.7624C21.1054 32.6912 21.1657 32.6028 21.2505 32.5004C21.5764 32.1071 22.0722 31.9295 22.4859 32.0698C23.0951 32.2759 23.0036 32.883 22.9543 33.2089L22.9503 33.2352C22.9395 33.3059 22.9275 33.3683 22.9158 33.4234C22.9321 33.425 22.95 33.4262 22.9699 33.4273C23.6646 33.4702 24.1308 33.2403 24.7346 32.9016C24.9647 32.7727 25.1856 32.7098 25.4094 32.7098C25.6599 32.7098 25.8849 32.7847 26.1465 32.8968C26.4703 33.0365 26.7641 33.0628 27.1929 33.0628C27.2554 33.0628 27.3151 33.0609 27.3742 33.059C27.3801 33.0588 27.386 33.0586 27.3919 33.0585L27.3942 33.0584C27.4634 33.0561 27.5318 33.0539 27.599 33.0539C27.9188 33.0539 28.285 33.1009 28.5775 33.4469C28.608 33.4829 28.6461 33.5257 28.6877 33.5725C28.6893 33.5742 28.6909 33.5759 28.6924 33.5777C28.8781 33.7853 29.0347 33.968 29.1348 34.1383C31.494 32.9387 33.381 30.9398 34.4369 28.5002C33.9756 28.9311 33.4898 29.3239 33.0278 29.6393C32.7701 29.815 32.4837 29.9118 32.222 29.9118C31.9443 29.9118 31.7198 29.8033 31.5893 29.6061C31.4859 29.449 31.4011 29.1696 31.5878 28.7303C31.6332 28.623 31.6828 28.5272 31.7305 28.435C31.8261 28.2489 31.9086 28.0882 31.9277 27.8938C31.9485 27.6866 31.9416 27.4677 31.9342 27.2361L31.9341 27.2323C31.9338 27.2239 31.9336 27.2154 31.9333 27.207C31.9297 27.0948 31.9262 26.984 31.9262 26.8745C31.9262 26.0753 32.0488 25.6879 32.3941 24.996C32.7223 24.3388 32.6283 23.5496 32.5287 23.0132C32.3918 22.2748 32.2718 22.177 31.4616 22.1415C30.713 22.1091 29.9434 22.0031 29.4684 21.1161C29.2625 20.7317 29.1861 20.6354 28.8842 20.3789C28.4508 20.0109 28.4511 19.7062 28.4513 19.2848V19.2385V19.2371C28.4513 18.8411 28.4513 18.5114 28.6585 18.1227C28.7164 18.0139 28.7762 17.9165 28.8342 17.8223C28.9928 17.5643 29.1075 17.3779 29.0983 17.1074C29.0893 16.8471 28.9535 16.6244 28.7961 16.367C28.6544 16.1351 28.4937 15.8723 28.4184 15.5512C28.3982 15.4644 28.3844 15.3803 28.3719 15.3004C28.3285 15.0243 28.3139 15.011 28.1959 14.977C28.1213 14.9556 27.9934 14.9635 27.8552 14.9768C27.7678 14.9852 27.6779 14.9939 27.5839 14.9939C27.4355 14.9939 27.3078 14.9712 27.1944 14.9244C26.7597 14.7446 26.5648 14.3109 26.6734 13.7633C26.7237 13.5087 26.8389 13.2449 26.996 13.0326C25.651 12.6661 24.2291 12.5504 22.8292 12.6937C23.0397 12.955 23.209 13.2719 23.2989 13.5409C23.4986 14.1388 23.3975 14.644 23.0213 14.927C22.7888 15.1017 22.464 15.1239 22.207 15.1239C22.0762 15.1239 21.94 15.1171 21.8084 15.1104L21.807 15.1104C21.6185 15.1009 21.4265 15.0933 21.3241 15.107C21.0308 15.1466 20.8541 15.3022 20.6092 15.5177C20.5427 15.576 20.4746 15.6357 20.4018 15.6955C20.2656 15.8074 20.1333 15.9284 19.9928 16.0572C19.7719 16.2592 19.5436 16.4679 19.2958 16.64C19.1814 16.7197 19.0762 16.7744 18.9916 16.8183C18.809 16.9133 18.7761 16.9307 18.7441 17.0819C18.7258 17.1678 18.7175 17.2523 18.7096 17.3339C18.7093 17.3362 18.7091 17.3385 18.7089 17.3409C18.6841 17.5973 18.6384 18.0752 18.0093 18.0752C17.9388 18.0752 17.8619 18.0695 17.7743 18.058C17.5253 18.0248 17.3384 17.9204 17.1884 17.8363C17.0293 17.7472 16.933 17.6969 16.801 17.6969C16.5129 17.6969 16.2439 17.9048 16.189 18.1704C16.1668 18.2769 16.1819 18.3145 16.1819 18.3145C16.2036 18.3318 16.2942 18.3587 16.5821 18.3587L16.7432 18.3579C16.8117 18.3579 16.8786 18.3589 16.942 18.3625C17.0262 18.3673 17.1047 18.4051 17.1606 18.4685C17.2165 18.5313 17.2454 18.6138 17.2403 18.6981C17.2219 19.0087 17.2967 19.2935 17.4362 19.4413C17.5511 19.5634 17.7087 19.5836 17.9245 19.5144C18.042 19.4771 18.1306 19.4357 18.2244 19.3918C18.421 19.2996 18.6244 19.2046 18.984 19.2046C19.1983 19.2046 19.3043 19.155 19.4639 19.0797C19.5653 19.0319 19.6802 18.978 19.8286 18.9341C19.9341 18.9027 20.037 18.8871 20.1351 18.8871C20.639 18.8871 20.9024 19.2679 21.1141 19.5744C21.2482 19.7685 21.3749 19.9516 21.5136 19.9777C21.5907 19.992 21.6967 19.9785 21.8093 19.9616C21.8109 19.9614 21.8124 19.9611 21.814 19.9609C21.9063 19.9471 22.0019 19.9327 22.1054 19.9327C22.2987 19.9327 22.464 19.9843 22.6108 20.0901C22.8325 20.25 22.9794 20.5299 23.1089 20.7771C23.1103 20.7799 23.1118 20.7828 23.1133 20.7856C23.1722 20.8979 23.2277 21.0037 23.2797 21.0767C23.3201 21.1339 23.3617 21.196 23.4044 21.2598C23.5211 21.4351 23.6534 21.6333 23.7849 21.7387C23.9216 21.8481 24.0501 21.8585 24.2838 21.8695C24.4125 21.8751 24.5586 21.882 24.7175 21.9168C25.0349 21.987 25.5555 22.2733 25.7082 22.6291C25.9447 23.181 25.5703 23.5759 25.3468 23.8119C25.3 23.8609 25.2548 23.9087 25.2145 23.957C25.0466 24.1597 25.0474 24.5497 25.0482 24.9267L25.0482 24.9283C25.0495 25.3842 25.0508 25.8554 24.7402 26.1402C24.5721 26.2941 24.328 26.3707 24.0918 26.4448L24.0899 26.4454C23.9584 26.486 23.8225 26.5289 23.7461 26.5731C23.5561 26.6837 23.3081 26.8717 23.2044 27.1399C23.1644 27.2433 23.1375 27.3385 23.1116 27.4304L23.1104 27.4346C23.0448 27.6688 22.9766 27.9109 22.7268 28.1748C22.6489 28.2568 22.5661 28.2956 22.5163 28.3183C22.5117 28.3204 22.5071 28.3227 22.5023 28.3245C22.5 28.351 22.4995 28.3916 22.4995 28.4213C22.4984 28.5497 22.4972 28.7265 22.3889 28.8733C22.2652 29.0411 22.0987 29.1298 21.9649 29.2008C21.8395 29.2677 21.7603 29.3124 21.7128 29.3872C21.5721 29.6084 21.5092 29.9067 21.5601 30.1126C21.5765 30.179 21.6055 30.2664 21.6362 30.3591C21.637 30.3616 21.6379 30.3642 21.6387 30.3667L21.639 30.3676C21.7748 30.7764 21.9438 31.2847 21.6985 31.6716C21.568 31.8782 21.3493 32.0011 21.0492 32.0378C20.9913 32.0445 20.9363 32.0481 20.8837 32.0481C19.9692 32.0481 19.7938 31.1288 19.6776 30.5199L19.6774 30.5192C19.6399 30.3212 19.6044 30.1343 19.5553 30.0142C19.4764 29.8204 19.3589 29.6516 19.2343 29.4725C19.0432 29.198 18.8266 28.8866 18.7574 28.4621C18.6946 28.077 18.6941 27.6532 18.7561 27.2686C18.7767 27.141 18.8201 27.0105 18.8623 26.8837C18.8631 26.8813 18.8639 26.8789 18.8647 26.8765C18.9252 26.6952 18.9939 26.4893 18.962 26.3754C18.9084 26.1829 18.6673 26.0094 18.4124 25.8263C18.1214 25.6169 17.7912 25.3791 17.6221 25.0215C17.5682 24.9076 17.5271 24.8042 17.4913 24.7132C17.4221 24.538 17.3675 24.3998 17.2456 24.243C17.1838 24.1636 17.1123 24.0834 17.0367 23.9986C16.8661 23.8068 16.6899 23.6086 16.5729 23.3657C16.4388 23.0873 16.3073 22.5113 16.4347 22.1024C16.494 21.9119 16.6145 21.7663 16.7208 21.6381C16.7721 21.576 16.8117 21.5262 16.8403 21.4838C16.5014 21.3692 16.2947 21.2417 15.986 20.8599C15.7913 20.6193 15.7001 20.6139 15.3983 20.5958L15.3961 20.5957C15.2901 20.5893 15.1702 20.5821 15.0284 20.5626C14.443 20.4817 14.3222 20.1086 14.2249 19.8084L14.2246 19.8076C14.1968 19.7208 14.1677 19.6311 14.1271 19.5415C14.0415 19.3548 13.9115 19.1826 13.7731 19.0314ZM14.0962 18.4526C14.3191 18.6738 14.5536 18.9497 14.7035 19.2789C14.7595 19.4015 14.7957 19.5139 14.8277 19.613C14.9122 19.8748 14.9232 19.9085 15.115 19.9348C15.2279 19.9504 15.3269 19.9564 15.4221 19.9623C15.4269 19.9626 15.4316 19.9628 15.4363 19.9631L15.4371 19.9632C15.7826 19.9841 16.1086 20.0038 16.4789 20.4612C16.754 20.8018 16.8578 20.8324 17.2935 20.9609L17.2957 20.9615C17.4109 20.9955 17.4972 21.0918 17.5182 21.21C17.5851 21.5875 17.368 21.8501 17.2096 22.0417C17.134 22.1331 17.0628 22.2194 17.0403 22.2914C16.9787 22.4879 17.0469 22.8894 17.144 23.0906C17.2227 23.2536 17.3621 23.4106 17.5105 23.5769C17.5897 23.6658 17.6717 23.758 17.7462 23.854C17.9234 24.0819 18.0034 24.2833 18.0806 24.4776L18.0813 24.4795C18.1146 24.5638 18.1495 24.6524 18.1958 24.7505C18.2951 24.96 18.5324 25.1311 18.7835 25.3117C19.116 25.551 19.4595 25.7985 19.5732 26.2048C19.6574 26.5058 19.5564 26.8086 19.4671 27.0762L19.4667 27.0773L19.4661 27.0792C19.4298 27.1883 19.3956 27.291 19.3827 27.3697C19.3311 27.6887 19.3316 28.0404 19.3837 28.36C19.4298 28.6425 19.5799 28.8584 19.7537 29.1087L19.7551 29.1106C19.8937 29.3098 20.0373 29.5162 20.143 29.7757C20.2151 29.9525 20.2564 30.1682 20.3 30.3959C20.3003 30.3974 20.3006 30.3989 20.3009 30.4004C20.437 31.1153 20.5481 31.4141 20.8842 31.4141C20.9121 31.4141 20.942 31.4121 20.9729 31.4085C21.0308 31.4019 21.1322 31.3825 21.1637 31.3329C21.2482 31.1996 21.1113 30.7879 21.0377 30.5669C21.0017 30.4589 20.968 30.3573 20.9453 30.2648C20.8332 29.8127 21.0007 29.3264 21.1782 29.0468C21.3177 28.8274 21.5118 28.7239 21.6678 28.6412C21.7491 28.598 21.8206 28.5599 21.863 28.516C21.8655 28.49 21.866 28.4468 21.866 28.4159L21.866 28.4148C21.8671 28.2929 21.8683 28.1417 21.9506 28.0044C22.0505 27.8364 22.1795 27.7761 22.2492 27.7436L22.2502 27.7431C22.2594 27.7388 22.2683 27.7357 22.2772 27.7301C22.4088 27.5889 22.4433 27.4666 22.5001 27.2648L22.5007 27.2627L22.5015 27.26C22.5302 27.1582 22.5627 27.0426 22.6136 26.911C22.748 26.5632 23.0297 26.2567 23.4279 26.025C23.5661 25.9451 23.7364 25.8914 23.9012 25.8396L23.9029 25.839C24.0491 25.7934 24.2477 25.7313 24.3121 25.6725C24.4162 25.5769 24.4156 25.2205 24.415 24.9325L24.415 24.9293C24.4135 24.4619 24.4125 23.9319 24.7269 23.5521C24.7754 23.4937 24.8306 23.4349 24.8868 23.3757C25.1282 23.121 25.1889 23.025 25.1264 22.8786C25.0845 22.7813 24.7851 22.5806 24.5813 22.5356C24.4771 22.5124 24.3711 22.5074 24.2591 22.5021L24.2552 22.5019C24.0049 22.4907 23.6935 22.4761 23.3893 22.233C23.1812 22.0662 23.0197 21.8243 22.8777 21.611C22.8751 21.6071 22.8724 21.6031 22.8698 21.5991C22.8335 21.5448 22.7981 21.4918 22.7633 21.4427C22.6863 21.3344 22.6172 21.2028 22.5503 21.0752C22.5495 21.0737 22.5487 21.0723 22.548 21.0708L22.5472 21.0693C22.4551 20.8938 22.3405 20.6755 22.2405 20.6029C22.2096 20.5807 22.1746 20.5659 22.1061 20.5659C22.0481 20.5659 21.9784 20.5761 21.9046 20.5874C21.7549 20.6096 21.5634 20.6308 21.3976 20.5999C21.0025 20.5258 20.7757 20.1979 20.5936 19.9343C20.3525 19.5849 20.2493 19.4694 20.0097 19.5409C19.9088 19.5709 19.8257 19.6099 19.738 19.651L19.7346 19.6526C19.5502 19.7394 19.341 19.838 18.9973 19.838C18.7663 19.838 18.6638 19.8858 18.4948 19.9647L18.4938 19.9652C18.3909 20.0135 18.2744 20.0681 18.1184 20.1177C17.666 20.2625 17.2564 20.1733 16.9757 19.876C16.7734 19.6612 16.6475 19.3496 16.6138 18.9923L16.5826 18.9926C16.3177 18.9926 15.9178 18.9926 15.6887 18.7106C15.552 18.5431 15.5119 18.318 15.5689 18.042C15.6846 17.4836 16.2143 17.0627 16.8012 17.0627C17.1046 17.063 17.3221 17.1844 17.4971 17.2821L17.4985 17.2829L17.4994 17.2834C17.6231 17.3526 17.7299 17.4124 17.8581 17.4292C17.9467 17.441 18.0234 17.4425 18.0594 17.4387C18.0676 17.3978 18.0739 17.3317 18.0788 17.2798L18.0792 17.2759C18.088 17.1851 18.0991 17.0722 18.1248 16.9503C18.219 16.5059 18.4744 16.3731 18.7 16.2556C18.7756 16.2168 18.8537 16.1759 18.9347 16.1195C19.1474 15.9716 19.3505 15.7859 19.5653 15.5893C19.7055 15.461 19.8508 15.3285 20 15.2059C20.0638 15.1535 20.1237 15.1009 20.1818 15.0498C20.1849 15.0471 20.188 15.0444 20.191 15.0417C20.4692 14.797 20.7568 14.5444 21.24 14.4793C21.3897 14.4588 21.6065 14.4657 21.8402 14.4777C21.9618 14.4836 22.0867 14.4905 22.2075 14.4905C22.5033 14.4905 22.606 14.4466 22.6407 14.4205C22.8011 14.2994 22.7796 14.0499 22.7332 13.8617C22.5983 13.3156 22.1598 12.8423 22.0124 12.8068C20.8492 13.0119 19.7303 13.3966 18.6859 13.9498C16.0455 15.414 14.514 17.7508 14.0962 18.4526ZM28.0674 14.3293C28.1808 14.3293 28.2802 14.3421 28.3716 14.3687C28.8906 14.5183 28.9527 14.9137 28.9981 15.2023C28.9988 15.2063 28.9994 15.2104 29.0001 15.2144C29.0097 15.2757 29.0199 15.3405 29.0354 15.4069C29.0878 15.6294 29.2089 15.8276 29.3371 16.0375C29.5151 16.3292 29.7169 16.6597 29.7317 17.0862C29.7475 17.548 29.5578 17.8568 29.3744 18.1551C29.3713 18.1601 29.3682 18.1652 29.365 18.1703C29.3159 18.2503 29.2654 18.3323 29.2183 18.421C29.0852 18.6708 29.0855 18.8789 29.0858 19.224V19.2855C29.0852 19.6605 29.0852 19.7182 29.2949 19.8965C29.6558 20.2032 29.7863 20.3667 30.0272 20.8175C30.3184 21.361 30.7482 21.4767 31.4897 21.5089C32.4692 21.5515 32.9414 21.7627 33.1524 22.898C33.2681 23.524 33.3749 24.4519 32.9614 25.2797C32.6554 25.8919 32.5606 26.192 32.5606 26.875C32.5606 26.9859 32.5639 27.099 32.5678 27.2124C32.5678 27.2142 32.5679 27.2159 32.5679 27.2177C32.5756 27.4592 32.5834 27.7092 32.5591 27.9572C32.5277 28.2716 32.4038 28.5127 32.2942 28.7252C32.2925 28.7286 32.2908 28.7319 32.2891 28.7353C32.2468 28.8179 32.2067 28.8961 32.1714 28.9791C32.094 29.1614 32.1103 29.2462 32.1185 29.2572C32.1223 29.2618 32.1527 29.2787 32.2222 29.2787C32.3543 29.2787 32.5218 29.2181 32.6707 29.1162C33.1241 28.8069 33.6035 28.4167 34.0573 27.9881C34.3283 27.7319 34.5728 27.4504 34.8675 27.0512C34.9538 26.78 35.4034 25.2659 35.3454 23.2962C35.1574 20.2191 33.7639 17.4113 31.4207 15.39C30.4274 14.5906 29.2367 13.8918 27.882 13.3141C27.8135 13.289 27.7446 13.265 27.6751 13.241C27.5648 13.297 27.3239 13.6083 27.2833 13.9623C27.2493 14.2614 27.3855 14.3176 27.4368 14.3388C27.5076 14.3679 27.6442 14.3607 27.7954 14.3462L27.7997 14.3458C27.8852 14.3377 27.9745 14.3293 28.0674 14.3293Z" fill="#F5A621"/>
<path d="M13.7731 19.0314C13.0352 20.5516 12.6334 22.2437 12.6334 24.0001C12.6334 28.7002 15.5014 32.743 19.5788 34.4714C19.6258 33.8155 19.8337 33.3662 20.7006 33.0511C20.9126 32.9737 20.946 32.9246 21.0569 32.7624C21.1054 32.6912 21.1657 32.6028 21.2505 32.5004C21.5764 32.1071 22.0722 31.9295 22.4859 32.0698C23.0951 32.2759 23.0036 32.883 22.9543 33.2089L22.9503 33.2352C22.9395 33.3059 22.9275 33.3683 22.9158 33.4234C22.9321 33.425 22.95 33.4262 22.9699 33.4273C23.6646 33.4702 24.1308 33.2403 24.7346 32.9016C24.9647 32.7727 25.1856 32.7098 25.4094 32.7098C25.6599 32.7098 25.8849 32.7847 26.1465 32.8968C26.4703 33.0365 26.7641 33.0628 27.1929 33.0628C27.2554 33.0628 27.3151 33.0609 27.3742 33.059L27.3919 33.0585L27.3942 33.0584C27.4634 33.0561 27.5318 33.0539 27.599 33.0539C27.9188 33.0539 28.285 33.1009 28.5775 33.4469C28.608 33.4829 28.6461 33.5257 28.6877 33.5725L28.6924 33.5777C28.8781 33.7853 29.0347 33.968 29.1348 34.1383C31.494 32.9387 33.381 30.9398 34.4369 28.5002C33.9756 28.9311 33.4898 29.3239 33.0278 29.6393C32.7701 29.815 32.4837 29.9118 32.222 29.9118C31.9443 29.9118 31.7198 29.8033 31.5893 29.6061C31.4859 29.449 31.4011 29.1696 31.5878 28.7303C31.6332 28.623 31.6828 28.5272 31.7305 28.435C31.8261 28.2489 31.9086 28.0882 31.9277 27.8938C31.9485 27.6866 31.9416 27.4677 31.9342 27.2361L31.9341 27.2323L31.9333 27.207C31.9297 27.0948 31.9262 26.984 31.9262 26.8745C31.9262 26.0753 32.0488 25.6879 32.3941 24.996C32.7223 24.3388 32.6283 23.5496 32.5287 23.0132C32.3918 22.2748 32.2718 22.177 31.4616 22.1415C30.713 22.1091 29.9434 22.0031 29.4684 21.1161C29.2625 20.7317 29.1861 20.6354 28.8842 20.3789C28.4508 20.0109 28.4511 19.7062 28.4513 19.2848V19.2385V19.2371C28.4513 18.8411 28.4513 18.5114 28.6585 18.1227C28.7164 18.0139 28.7762 17.9165 28.8342 17.8223C28.9928 17.5643 29.1075 17.3779 29.0983 17.1074C29.0893 16.8471 28.9535 16.6244 28.7961 16.367C28.6544 16.1351 28.4937 15.8723 28.4184 15.5512C28.3982 15.4644 28.3844 15.3803 28.3719 15.3004C28.3285 15.0243 28.3139 15.011 28.1959 14.977C28.1213 14.9556 27.9934 14.9635 27.8552 14.9768C27.7678 14.9852 27.6779 14.9939 27.5839 14.9939C27.4355 14.9939 27.3078 14.9712 27.1944 14.9244C26.7597 14.7446 26.5648 14.3109 26.6734 13.7633C26.7237 13.5087 26.8389 13.2449 26.996 13.0326C25.651 12.6661 24.2291 12.5504 22.8292 12.6937C23.0397 12.955 23.209 13.2719 23.2989 13.5409C23.4986 14.1388 23.3975 14.644 23.0213 14.927C22.7888 15.1017 22.464 15.1239 22.207 15.1239C22.0762 15.1239 21.94 15.1171 21.8084 15.1104L21.807 15.1104C21.6185 15.1009 21.4265 15.0933 21.3241 15.107C21.0308 15.1466 20.8541 15.3022 20.6092 15.5177C20.5427 15.576 20.4746 15.6357 20.4018 15.6955C20.2656 15.8074 20.1333 15.9284 19.9928 16.0572C19.7719 16.2592 19.5436 16.4679 19.2958 16.64C19.1814 16.7197 19.0762 16.7744 18.9916 16.8183C18.809 16.9133 18.7761 16.9307 18.7441 17.0819C18.7258 17.1678 18.7175 17.2523 18.7096 17.3339L18.7089 17.3409C18.6841 17.5973 18.6384 18.0752 18.0093 18.0752C17.9388 18.0752 17.8619 18.0695 17.7743 18.058C17.5253 18.0248 17.3384 17.9204 17.1884 17.8363C17.0293 17.7472 16.933 17.6969 16.801 17.6969C16.5129 17.6969 16.2439 17.9048 16.189 18.1704C16.1668 18.2769 16.1819 18.3145 16.1819 18.3145C16.2036 18.3318 16.2942 18.3587 16.5821 18.3587L16.7432 18.3579C16.8117 18.3579 16.8786 18.3589 16.942 18.3625C17.0262 18.3673 17.1047 18.4051 17.1606 18.4685C17.2165 18.5313 17.2454 18.6138 17.2403 18.6981C17.2219 19.0087 17.2967 19.2935 17.4362 19.4413C17.5511 19.5634 17.7087 19.5836 17.9245 19.5144C18.042 19.4771 18.1306 19.4357 18.2244 19.3918C18.421 19.2996 18.6244 19.2046 18.984 19.2046C19.1983 19.2046 19.3043 19.155 19.4639 19.0797C19.5653 19.0319 19.6802 18.978 19.8286 18.9341C19.9341 18.9027 20.037 18.8871 20.1351 18.8871C20.639 18.8871 20.9024 19.2679 21.1141 19.5744C21.2482 19.7685 21.3749 19.9516 21.5136 19.9777C21.5907 19.992 21.6967 19.9785 21.8093 19.9616L21.814 19.9609C21.9063 19.9471 22.0019 19.9327 22.1054 19.9327C22.2987 19.9327 22.464 19.9843 22.6108 20.0901C22.8325 20.25 22.9794 20.5299 23.1089 20.7771L23.1133 20.7856C23.1722 20.8979 23.2277 21.0037 23.2797 21.0767C23.3201 21.1339 23.3617 21.196 23.4044 21.2598C23.5211 21.4351 23.6534 21.6333 23.7849 21.7387C23.9216 21.8481 24.0501 21.8585 24.2838 21.8695C24.4125 21.8751 24.5586 21.882 24.7175 21.9168C25.0349 21.987 25.5555 22.2733 25.7082 22.6291C25.9447 23.181 25.5703 23.5759 25.3468 23.8119C25.3 23.8609 25.2548 23.9087 25.2145 23.957C25.0466 24.1597 25.0474 24.5497 25.0482 24.9267L25.0482 24.9283C25.0495 25.3842 25.0508 25.8554 24.7402 26.1402C24.5721 26.2941 24.328 26.3707 24.0918 26.4448L24.0899 26.4454C23.9584 26.486 23.8225 26.5289 23.7461 26.5731C23.5561 26.6837 23.3081 26.8717 23.2044 27.1399C23.1644 27.2433 23.1375 27.3385 23.1116 27.4304L23.1104 27.4346C23.0448 27.6688 22.9766 27.9109 22.7268 28.1748C22.6489 28.2568 22.5661 28.2956 22.5163 28.3183C22.5117 28.3204 22.5071 28.3227 22.5023 28.3245C22.5 28.351 22.4995 28.3916 22.4995 28.4213C22.4984 28.5497 22.4972 28.7265 22.3889 28.8733C22.2652 29.0411 22.0987 29.1298 21.9649 29.2008C21.8395 29.2677 21.7603 29.3124 21.7128 29.3872C21.5721 29.6084 21.5092 29.9067 21.5601 30.1126C21.5765 30.179 21.6055 30.2664 21.6362 30.3591L21.6387 30.3667L21.639 30.3676C21.7748 30.7764 21.9438 31.2847 21.6985 31.6716C21.568 31.8782 21.3493 32.0011 21.0492 32.0378C20.9913 32.0445 20.9363 32.0481 20.8837 32.0481C19.9692 32.0481 19.7938 31.1288 19.6776 30.5199L19.6774 30.5192C19.6399 30.3212 19.6044 30.1343 19.5553 30.0142C19.4764 29.8204 19.3589 29.6516 19.2343 29.4725C19.0432 29.198 18.8266 28.8866 18.7574 28.4621C18.6946 28.077 18.6941 27.6532 18.7561 27.2686C18.7767 27.141 18.8201 27.0105 18.8623 26.8837L18.8647 26.8765C18.9252 26.6952 18.9939 26.4893 18.962 26.3754C18.9084 26.1829 18.6673 26.0094 18.4124 25.8263C18.1214 25.6169 17.7912 25.3791 17.6221 25.0215C17.5682 24.9076 17.5271 24.8042 17.4913 24.7132C17.4221 24.538 17.3675 24.3998 17.2456 24.243C17.1838 24.1636 17.1123 24.0834 17.0367 23.9986C16.8661 23.8068 16.6899 23.6086 16.5729 23.3657C16.4388 23.0873 16.3073 22.5113 16.4347 22.1024C16.494 21.9119 16.6145 21.7663 16.7208 21.6381C16.7721 21.576 16.8117 21.5262 16.8403 21.4838C16.5014 21.3692 16.2947 21.2417 15.986 20.8599C15.7913 20.6193 15.7001 20.6139 15.3983 20.5958L15.3961 20.5957C15.2901 20.5893 15.1702 20.5821 15.0284 20.5626C14.443 20.4817 14.3222 20.1086 14.2249 19.8084L14.2246 19.8076C14.1968 19.7208 14.1677 19.6311 14.1271 19.5415C14.0415 19.3548 13.9115 19.1826 13.7731 19.0314Z" fill="#F5A621"/>
</svg>
