<svg width="32" height="32" viewBox="0 0 32 32" fill="none" xmlns="http://www.w3.org/2000/svg">
<path d="M0 16C0 7.16344 7.16344 0 16 0V0C24.8366 0 32 7.16344 32 16V16C32 24.8366 24.8366 32 16 32V32C7.16344 32 0 24.8366 0 16V16Z" fill="#F5A621" fill-opacity="0.1"/>
<path d="M21.6152 19.7856C21.758 20.0351 21.8301 20.3261 21.8301 20.6601C21.8301 21.1717 21.6824 21.5976 21.387 21.9391C21.0915 22.2806 20.6655 22.4822 20.1077 22.5427V23.4184H19.3972V22.5464C18.4682 22.4481 17.8933 21.8899 17.6711 20.8743L18.7697 20.5781C18.8711 21.217 19.208 21.537 19.7805 21.537C20.0478 21.537 20.2455 21.469 20.3713 21.3316C20.497 21.1943 20.5605 21.0305 20.5605 20.8364C20.5605 20.6361 20.497 20.4836 20.3713 20.3816C20.2455 20.2782 19.9648 20.1472 19.5302 19.9884C19.1396 19.8485 18.8344 19.7112 18.6147 19.5726C18.395 19.4365 18.2167 19.2462 18.08 19.0005C17.9421 18.7535 17.8737 18.4662 17.8737 18.1398C17.8737 17.7114 17.997 17.3245 18.2411 16.9818C18.4865 16.6391 18.871 16.4299 19.3971 16.353V15.6764H20.1076V16.3531C20.9011 16.4514 21.4162 16.9151 21.6506 17.7442L20.6704 18.1588C20.4799 17.5905 20.1857 17.3057 19.7854 17.3057C19.5852 17.3057 19.424 17.3687 19.3032 17.496C19.1811 17.6233 19.12 17.777 19.12 17.9585C19.12 18.1425 19.1786 18.2836 19.2958 18.3831C19.413 18.4814 19.6632 18.6036 20.0478 18.7485C20.4689 18.9073 20.8009 19.0585 21.0402 19.1997C21.2808 19.3408 21.4712 19.5373 21.6152 19.7856ZM26 19.5474C26 23.1109 23.2021 25.999 19.75 25.999C16.2979 25.999 13.5 23.1109 13.5 19.5474C13.5 15.9839 16.2979 13.0958 19.75 13.0958C23.2021 13.0958 26 15.9839 26 19.5474ZM24.75 19.5474C24.75 16.7009 22.5076 14.3861 19.75 14.3861C16.9924 14.3861 14.75 16.7009 14.75 19.5474C14.75 22.3939 16.9924 24.7087 19.75 24.7087C22.5076 24.7087 24.75 22.3939 24.75 19.5474ZM16 7.93451H23.5C23.8455 7.93451 24.125 7.71777 24.125 7.45064V6.48289C24.125 6.21576 23.8455 5.99902 23.5 5.99902H16C15.6545 5.99902 15.375 6.21576 15.375 6.48289V7.45064C15.375 7.71777 15.6545 7.93451 16 7.93451ZM16 10.5152H23.5C23.8455 10.5152 24.125 10.2984 24.125 10.0313V9.06354C24.125 8.7964 23.8455 8.57967 23.5 8.57967H16C15.6545 8.57967 15.375 8.7964 15.375 9.06354V10.0313C15.375 10.2984 15.6545 10.5152 16 10.5152ZM6.625 23.4184H13.9956C13.6221 22.8287 13.3328 22.1772 13.1411 21.4829H6.625C6.27953 21.4829 6 21.6996 6 21.9668V22.9345C6 23.2016 6.27953 23.4184 6.625 23.4184ZM14.125 24.0635H6.625C6.27953 24.0635 6 24.2803 6 24.5474V25.5152C6 25.7823 6.27953 25.999 6.625 25.999H14.125C14.4705 25.999 14.75 25.7823 14.75 25.5152V24.5474C14.75 24.2803 14.4705 24.0635 14.125 24.0635ZM6.625 20.8377H12.9946C12.9189 20.4181 12.875 19.9884 12.875 19.5474C12.875 19.3294 12.8872 19.1152 12.9068 18.9022H6.625C6.27953 18.9022 6 19.119 6 19.3861V20.3539C6 20.621 6.27953 20.8377 6.625 20.8377ZM16 13.0958H16.9033C17.7712 12.685 18.7332 12.4506 19.75 12.4506C20.7656 12.4506 21.7288 12.685 22.5967 13.0958H23.5C23.8455 13.0958 24.125 12.8791 24.125 12.6119V11.6442C24.125 11.377 23.8455 11.1603 23.5 11.1603H16C15.6545 11.1603 15.375 11.377 15.375 11.6442V12.6119C15.375 12.8791 15.6545 13.0958 16 13.0958ZM6.625 13.0958H14.125C14.4705 13.0958 14.75 12.8791 14.75 12.6119V11.6442C14.75 11.377 14.4705 11.1603 14.125 11.1603H6.625C6.27953 11.1603 6 11.377 6 11.6442V12.6119C6 12.8791 6.27953 13.0958 6.625 13.0958ZM6.625 18.2571H12.9946C13.1167 17.5716 13.3352 16.9227 13.6343 16.3216H6.625C6.27953 16.3216 6 16.5383 6 16.8055V17.7732C6 18.0404 6.27953 18.2571 6.625 18.2571ZM6.625 15.6764H13.9956C14.2178 15.3236 14.4717 14.996 14.75 14.691V14.2248C14.75 13.9577 14.4705 13.741 14.125 13.741H6.625C6.27953 13.741 6 13.9577 6 14.2248V15.1926C6 15.4597 6.27953 15.6764 6.625 15.6764Z" fill="#F5A621"/>
</svg>
