<svg width="48" height="48" viewBox="0 0 48 48" fill="none" xmlns="http://www.w3.org/2000/svg">
<path d="M0 24C0 10.7452 10.7452 0 24 0V0C37.2548 0 48 10.7452 48 24V24C48 37.2548 37.2548 48 24 48V48C10.7452 48 0 37.2548 0 24V24Z" fill="#F5A621" fill-opacity="0.1"/>
<path fill-rule="evenodd" clip-rule="evenodd" d="M40 24C40 15.0303 32.7273 8 24 8C15.0303 8 8 15.2727 8 24C8 32.9697 15.2727 40 24 40C32.9697 40 40 32.7273 40 24ZM20 10.0173C13.9287 11.7659 9.45455 17.3858 9.45455 24C9.45455 30.6142 13.9287 36.2341 20 37.9827V36.373C14.7775 34.6859 11 29.7841 11 24C11 18.2159 14.7775 13.3141 20 11.627V10.0173ZM28 11.627C33.2225 13.3141 37 18.2159 37 24C37 29.7841 33.2225 34.6859 28 36.373V37.9827C34.0713 36.2341 38.5455 30.6142 38.5455 24C38.5455 17.3858 34.0713 11.7659 28 10.0173V11.627ZM25.4004 26.3818C25.4004 26.0081 25.2956 25.7119 25.0859 25.4932C24.8809 25.2699 24.5299 25.0648 24.0332 24.8779C23.5365 24.6911 23.1081 24.5065 22.748 24.3242C22.388 24.1374 22.0781 23.9255 21.8184 23.6885C21.5632 23.4469 21.3626 23.1644 21.2168 22.8408C21.0755 22.5173 21.0049 22.1322 21.0049 21.6855C21.0049 20.9154 21.251 20.2842 21.7432 19.792C22.2354 19.2998 22.8893 19.0127 23.7051 18.9307V17.4678H24.7988V18.9512C25.6055 19.0651 26.2367 19.4023 26.6924 19.9629C27.1481 20.5189 27.376 21.2412 27.376 22.1299H25.4004C25.4004 21.583 25.2865 21.1751 25.0586 20.9062C24.8353 20.6328 24.5345 20.4961 24.1562 20.4961C23.7826 20.4961 23.4932 20.6032 23.2881 20.8174C23.083 21.027 22.9805 21.3187 22.9805 21.6924C22.9805 22.0387 23.0807 22.3167 23.2812 22.5264C23.4818 22.736 23.8532 22.9502 24.3955 23.1689C24.9424 23.3877 25.3913 23.5951 25.7422 23.791C26.0931 23.9824 26.3893 24.2012 26.6309 24.4473C26.8724 24.6888 27.057 24.9668 27.1846 25.2812C27.3122 25.5911 27.376 25.9534 27.376 26.3682C27.376 27.1429 27.1344 27.7718 26.6514 28.2549C26.1683 28.738 25.5029 29.0228 24.6553 29.1094V30.4697H23.5684V29.1162C22.6341 29.016 21.9095 28.6855 21.3945 28.125C20.8841 27.5599 20.6289 26.8102 20.6289 25.876H22.6045C22.6045 26.4183 22.7321 26.8353 22.9873 27.127C23.2471 27.4141 23.6185 27.5576 24.1016 27.5576C24.5026 27.5576 24.8193 27.4528 25.0518 27.2432C25.2842 27.029 25.4004 26.7419 25.4004 26.3818Z" fill="#F5A621"/>
</svg>
