<svg width="48" height="48" viewBox="0 0 48 48" fill="none" xmlns="http://www.w3.org/2000/svg">
<path d="M0 24C0 10.7452 10.7452 0 24 0V0C37.2548 0 48 10.7452 48 24V24C48 37.2548 37.2548 48 24 48V48C10.7452 48 0 37.2548 0 24V24Z" fill="#F5A621" fill-opacity="0.1"/>
<path fill-rule="evenodd" clip-rule="evenodd" d="M30.1808 13.7041C31.1851 13.4678 32.1473 14.2298 32.1473 15.2616V17.2065H32.4906C33.322 17.2065 34 17.8845 34 18.716V24.2537C32.8662 23.4628 31.4872 22.999 30 22.999C26.134 22.999 23 26.133 23 29.999C23 30.5306 23.0593 31.0484 23.1716 31.5461H15.5094C14.678 31.5461 14 30.8682 14 30.0367V18.716C14 17.9698 14.5459 17.3473 15.2588 17.2274C15.2946 17.211 15.3325 17.1979 15.3721 17.1885L30.1808 13.7041ZM30.9473 15.2616C30.9473 15.0037 30.7067 14.8132 30.4556 14.8722L20.6792 17.1726H30.9473V15.2616ZM36 29.999C36 33.3127 33.3137 35.999 30 35.999C26.6863 35.999 24 33.3127 24 29.999C24 26.6853 26.6863 23.999 30 23.999C33.3137 23.999 36 26.6853 36 29.999ZM27 30.599H29.4V32.999H30.6V30.599H33V29.399H30.6V26.999H29.4V29.399H27V30.599Z" fill="#F5A621"/>
</svg>
