<svg width="56" height="56" viewBox="0 0 56 56" fill="none" xmlns="http://www.w3.org/2000/svg">
<circle opacity="0.1" cx="28" cy="28" r="28" fill="#F5A621"/>
<path d="M27.9997 44C26.0613 44 24.2022 43.6533 22.4811 43.0192C22.4174 42.9981 22.3789 42.9842 22.368 42.9804C22.3486 42.9736 22.3299 42.9651 22.3118 42.9559C16.2892 40.6575 12 34.8203 12 28.0002C12 22.0617 15.2618 16.6423 20.5117 13.857C22.0006 13.0329 23.5855 12.4894 25.2228 12.2408C26.1335 12.0807 27.0676 12 27.9997 12C29.716 12 31.4048 12.2704 33.0197 12.8033C33.0905 12.8115 33.16 12.8296 33.2261 12.8568C33.3136 12.8929 33.3997 12.9287 33.4856 12.9658C35.2997 13.6275 36.9646 14.6052 38.4348 15.871C42.8387 19.4229 43.8764 23.8946 43.9707 27.0235C43.9905 27.3467 44 27.6753 44 27.9998C44 34.4225 40.1961 39.9734 34.7228 42.5183C34.6976 42.5333 34.6707 42.5476 34.6427 42.5595C34.5757 42.5888 34.5086 42.6177 34.4411 42.6457C32.4694 43.5164 30.2902 44 27.9997 44ZM22.9364 42.2758C23.6478 42.4907 25.6325 43.0131 28.1175 43.0138C30.2606 43.0138 32.265 42.6331 34.0781 41.8818C33.9562 41.7034 33.7369 41.4575 33.6265 41.3346C33.5625 41.2624 33.5043 41.1977 33.4576 41.1428C33.3156 40.9749 33.1498 40.9184 32.7983 40.9184C32.7169 40.9184 32.6335 40.9208 32.5497 40.9239C32.5422 40.9241 32.5346 40.9243 32.527 40.9246C32.439 40.9274 32.3499 40.9303 32.2603 40.9303C31.588 40.9303 31.0905 40.8827 30.5269 40.6395C30.0733 40.444 29.7974 40.3797 29.3932 40.6068C28.5265 41.0928 27.7276 41.4871 26.5738 41.4139C26.2605 41.3941 25.9649 41.3577 25.7898 41.1275C25.6202 40.9041 25.672 40.6558 25.718 40.4379C25.733 40.3671 25.7503 40.2847 25.765 40.1883L25.7704 40.1532C25.8525 39.609 25.8021 39.5923 25.7108 39.5613C25.4874 39.4857 25.1935 39.6216 24.9855 39.8729C24.8973 39.9792 24.8349 40.0718 24.774 40.1607L24.7732 40.1618C24.5957 40.4216 24.4276 40.6677 23.8896 40.8629C23.1012 41.1493 22.9572 41.3989 22.9364 42.2758ZM14.3641 21.3752C13.3802 23.4021 12.8446 25.6582 12.8446 28.0002C12.8446 34.2669 16.6686 39.6574 22.1051 41.9618C22.1678 41.0873 22.445 40.4883 23.6008 40.0681C23.8834 39.9649 23.9281 39.8995 24.0759 39.6833C24.1406 39.5882 24.2209 39.4704 24.334 39.3338C24.7685 38.8094 25.4295 38.5727 25.9812 38.7597C26.7934 39.0345 26.6715 39.844 26.6058 40.2785L26.6003 40.3136C26.586 40.4079 26.57 40.491 26.5544 40.5646C26.5762 40.5666 26.6 40.5683 26.6266 40.5697C27.5529 40.6269 28.1744 40.3204 28.9794 39.8688C29.2863 39.6969 29.5808 39.6131 29.8791 39.6131C30.2132 39.6131 30.5132 39.7129 30.862 39.8624C31.2938 40.0487 31.6854 40.0837 32.2572 40.0837C32.3405 40.0837 32.4201 40.0812 32.4989 40.0787C32.5068 40.0784 32.5146 40.0782 32.5225 40.0779L32.5256 40.0778C32.6178 40.0748 32.7091 40.0718 32.7987 40.0718C33.225 40.0718 33.7134 40.1345 34.1033 40.5959C34.144 40.6438 34.1949 40.7009 34.2503 40.7633C34.2524 40.7656 34.2545 40.7679 34.2566 40.7703C34.5041 41.0471 34.7129 41.2906 34.8464 41.5178C37.992 39.9182 40.508 37.2531 41.9158 34.0002C41.3008 34.5747 40.6531 35.0985 40.037 35.5191C39.6934 35.7534 39.3117 35.8824 38.9626 35.8824C38.5924 35.8824 38.2931 35.7377 38.1191 35.4748C37.9811 35.2654 37.8681 34.8928 38.117 34.3071C38.1776 34.164 38.2437 34.0363 38.3074 33.9134C38.4348 33.6651 38.5448 33.4509 38.5703 33.1918C38.5981 32.9154 38.5888 32.6235 38.579 32.3148L38.5788 32.3098C38.5784 32.2985 38.5781 32.2873 38.5777 32.276C38.573 32.1265 38.5682 31.9787 38.5682 31.8327C38.5682 30.7671 38.7317 30.2505 39.1921 29.328C39.6297 28.4517 39.5044 27.3994 39.3716 26.6843C39.1891 25.6998 39.029 25.5694 37.9488 25.522C36.9506 25.4788 35.9246 25.3374 35.2911 24.1547C35.0167 23.6422 34.9148 23.5138 34.5123 23.1719C33.9344 22.6812 33.9347 22.2749 33.9351 21.713V21.6514V21.6494C33.9351 21.1214 33.9351 20.6819 34.2113 20.1635C34.2886 20.0185 34.3683 19.8887 34.4456 19.7631C34.657 19.4191 34.81 19.1705 34.7977 18.8099C34.7858 18.4629 34.6046 18.1659 34.3948 17.8226C34.2058 17.5134 33.9916 17.163 33.8912 16.7349C33.8643 16.6192 33.8459 16.5071 33.8292 16.4005C33.7713 16.0324 33.7519 16.0147 33.5945 15.9694C33.4951 15.9408 33.3245 15.9513 33.1402 15.9691C33.0238 15.9803 32.9039 15.9919 32.7786 15.9919C32.5807 15.9919 32.4104 15.9616 32.2592 15.8992C31.6796 15.6595 31.4198 15.0813 31.5645 14.3511C31.6316 14.0116 31.7852 13.6598 31.9946 13.3768C30.2013 12.8881 28.3055 12.7339 26.4389 12.9249C26.7195 13.2733 26.9453 13.6959 27.0652 14.0545C27.3315 14.8517 27.1966 15.5253 26.695 15.9026C26.3851 16.1356 25.9519 16.1652 25.6093 16.1652C25.4349 16.1652 25.2534 16.1561 25.0779 16.1473L25.076 16.1472C24.8247 16.1346 24.5686 16.1243 24.4321 16.1427C24.0411 16.1955 23.8055 16.4029 23.4789 16.6903C23.3903 16.768 23.2994 16.8477 23.2023 16.9273C23.0208 17.0765 22.8444 17.2379 22.6571 17.4096C22.3626 17.6789 22.0581 17.9572 21.7278 18.1867C21.5752 18.2929 21.4349 18.3658 21.3222 18.4244C21.0787 18.5511 21.0348 18.5742 20.9922 18.7758C20.9677 18.8904 20.9567 19.0031 20.9461 19.1119C20.9458 19.115 20.9455 19.1181 20.9452 19.1211C20.9122 19.463 20.8512 20.1002 20.0124 20.1002C19.9184 20.1002 19.8159 20.0927 19.6991 20.0774C19.3671 20.0331 19.1178 19.8938 18.9179 19.7818C18.7057 19.6629 18.5774 19.5959 18.4013 19.5959C18.0172 19.5959 17.6586 19.8731 17.5853 20.2272C17.5557 20.3692 17.5758 20.4193 17.5758 20.4193C17.6048 20.4425 17.7256 20.4782 18.1094 20.4782L18.3243 20.4772C18.4156 20.4772 18.5048 20.4786 18.5893 20.4833C18.7017 20.4898 18.8062 20.5402 18.8808 20.6246C18.9554 20.7084 18.9938 20.8184 18.987 20.9308C18.9625 21.3449 19.0623 21.7246 19.2482 21.9218C19.4015 22.0846 19.6116 22.1115 19.8994 22.0192C20.056 21.9695 20.1742 21.9143 20.2992 21.8557C20.5614 21.7328 20.8325 21.6061 21.312 21.6061C21.5977 21.6061 21.739 21.54 21.9519 21.4396C22.0871 21.3759 22.2403 21.304 22.4382 21.2455C22.5788 21.2036 22.716 21.1828 22.8468 21.1828C23.5187 21.1828 23.8698 21.6905 24.1521 22.0992C24.3309 22.358 24.4998 22.6022 24.6848 22.6369C24.7876 22.656 24.9289 22.6379 25.0791 22.6155C25.0812 22.6152 25.0832 22.6149 25.0853 22.6145C25.2084 22.5961 25.3358 22.577 25.4738 22.577C25.7316 22.577 25.9519 22.6458 26.1478 22.7868C26.4434 22.9999 26.6392 23.3732 26.8118 23.7028C26.8138 23.7066 26.8158 23.7103 26.8177 23.7141C26.8962 23.8638 26.9702 24.0049 27.0397 24.1023C27.0935 24.1786 27.149 24.2613 27.2058 24.3465C27.3615 24.5801 27.5379 24.8443 27.7133 24.985C27.8955 25.1307 28.0667 25.1447 28.3783 25.1593C28.55 25.1668 28.7448 25.176 28.9566 25.2223C29.3799 25.316 30.0739 25.6977 30.2776 26.1721C30.5929 26.908 30.0937 27.4345 29.7957 27.7492C29.7334 27.8146 29.6731 27.8783 29.6193 27.9426C29.3955 28.213 29.3966 28.733 29.3976 29.2357L29.3976 29.2377C29.3993 29.8456 29.401 30.4739 28.9869 30.8536C28.7627 31.0587 28.4373 31.1609 28.1224 31.2598L28.1199 31.2605C27.9445 31.3147 27.7633 31.3719 27.6615 31.4308C27.4081 31.5783 27.0775 31.8289 26.9392 32.1865C26.8859 32.3243 26.85 32.4513 26.8155 32.5739L26.8139 32.5795C26.7263 32.8918 26.6354 33.2146 26.3024 33.5664C26.1985 33.6757 26.0882 33.7275 26.0218 33.7578C26.0156 33.7605 26.0095 33.7636 26.003 33.7659C26 33.8014 25.9993 33.8555 25.9993 33.895C25.9979 34.0663 25.9962 34.302 25.8518 34.4978C25.687 34.7215 25.465 34.8397 25.2865 34.9343C25.1193 35.0236 25.0137 35.0832 24.9504 35.1829C24.7627 35.4779 24.679 35.8756 24.7467 36.1501C24.7686 36.2386 24.8073 36.3552 24.8483 36.4788C24.8494 36.4822 24.8505 36.4856 24.8516 36.4889L24.852 36.4901C25.0331 37.0351 25.2583 37.7129 24.9313 38.2288C24.7573 38.5043 24.4658 38.6681 24.0656 38.7171C23.9883 38.726 23.9151 38.7307 23.845 38.7307C22.6256 38.7307 22.3917 37.5051 22.2367 36.6932L22.2366 36.6922C22.1865 36.4283 22.1392 36.179 22.0738 36.019C21.9685 35.7605 21.8119 35.5354 21.6457 35.2967C21.391 34.9306 21.1022 34.5155 21.0099 33.9495C20.9261 33.436 20.9254 32.871 21.0082 32.3581C21.0356 32.188 21.0935 32.0139 21.1497 31.845C21.1508 31.8418 21.1519 31.8386 21.1529 31.8354C21.2336 31.5936 21.3252 31.3191 21.2827 31.1672C21.2112 30.9105 20.8897 30.6792 20.5498 30.4351C20.1619 30.1558 19.7216 29.8388 19.4962 29.362C19.4243 29.2101 19.3695 29.0722 19.3218 28.951C19.2295 28.7174 19.1566 28.5331 18.9942 28.324C18.9118 28.2181 18.8164 28.1112 18.7156 27.9981C18.4881 27.7424 18.2532 27.4781 18.0972 27.1543C17.9184 26.7831 17.743 26.0151 17.9129 25.4699C17.992 25.2159 18.1527 25.0218 18.2944 24.8508C18.3628 24.7681 18.4156 24.7017 18.4537 24.6451C18.0018 24.4922 17.7263 24.3223 17.3146 23.8132C17.0551 23.4924 16.9335 23.4852 16.531 23.461L16.5281 23.4609C16.3868 23.4524 16.227 23.4428 16.0379 23.4168C15.2574 23.3089 15.0962 22.8115 14.9665 22.4112L14.9662 22.4101C14.9291 22.2943 14.8902 22.1748 14.8361 22.0553C14.722 21.8063 14.5487 21.5768 14.3641 21.3752ZM14.7949 20.6035C15.0922 20.8984 15.4048 21.2662 15.6047 21.7052C15.6793 21.8687 15.7276 22.0185 15.7702 22.1506C15.8829 22.4997 15.8976 22.5446 16.1533 22.5797C16.3039 22.6005 16.4358 22.6086 16.5628 22.6164C16.5691 22.6167 16.5754 22.6171 16.5817 22.6175L16.5828 22.6176C17.0435 22.6455 17.4781 22.6718 17.9719 23.2816C18.3387 23.7358 18.4771 23.7766 19.058 23.9479L19.0609 23.9487C19.2145 23.994 19.3296 24.1224 19.3576 24.2801C19.4468 24.7834 19.1573 25.1335 18.9462 25.3889C18.8454 25.5108 18.7504 25.6259 18.7204 25.7219C18.6383 25.9838 18.7292 26.5191 18.8587 26.7875C18.9635 27.0048 19.1495 27.2142 19.3473 27.4359C19.4529 27.5544 19.5622 27.6773 19.6617 27.8054C19.8979 28.1092 20.0046 28.3778 20.1075 28.6368L20.1085 28.6394C20.1527 28.7518 20.1994 28.8699 20.261 29.0007C20.3935 29.2799 20.7099 29.5081 21.0446 29.7489C21.488 30.068 21.9461 30.3979 22.0976 30.9398C22.2098 31.3411 22.0751 31.7448 21.9561 32.1016L21.9556 32.1031L21.9547 32.1057C21.9064 32.2511 21.8608 32.388 21.8436 32.493C21.7748 32.9183 21.7754 33.3873 21.8449 33.8133C21.9064 34.19 22.1065 34.4779 22.3383 34.8116L22.3401 34.8141C22.525 35.0798 22.7164 35.3549 22.8574 35.7009C22.9535 35.9367 23.0085 36.2243 23.0667 36.5279C23.0671 36.5299 23.0674 36.5319 23.0678 36.5339C23.2493 37.4871 23.3975 37.8855 23.8456 37.8855C23.8828 37.8855 23.9226 37.8828 23.9638 37.878C24.0411 37.8692 24.1763 37.8433 24.2182 37.7772C24.3309 37.5995 24.1484 37.0505 24.0503 36.7559C24.0023 36.6119 23.9573 36.4763 23.927 36.3531C23.7775 35.7503 24.0009 35.1019 24.2376 34.729C24.4236 34.4365 24.6824 34.2986 24.8904 34.1882C24.9987 34.1307 25.0941 34.0799 25.1506 34.0213C25.154 33.9866 25.1547 33.9291 25.1547 33.8879L25.1547 33.8864C25.1561 33.7239 25.1578 33.5222 25.2674 33.3392C25.4007 33.1152 25.5727 33.0348 25.6656 32.9914L25.6669 32.9909C25.6792 32.9851 25.6911 32.981 25.703 32.9735C25.8785 32.7851 25.9244 32.6222 26.0002 32.3531L26.001 32.3503L26.002 32.3466C26.0402 32.211 26.0837 32.0569 26.1515 31.8814C26.3306 31.4175 26.7063 31.0089 27.2372 30.7C27.4214 30.5934 27.6486 30.5219 27.8682 30.4528L27.8705 30.4521C28.0654 30.3912 28.3303 30.3084 28.4161 30.2301C28.5549 30.1025 28.5541 29.6274 28.5534 29.2433L28.5534 29.2391C28.5513 28.6159 28.55 27.9092 28.9692 27.4029C29.0339 27.3249 29.1075 27.2465 29.1824 27.1675C29.5042 26.828 29.5853 26.7 29.5018 26.5048C29.446 26.3751 29.0468 26.1074 28.7751 26.0475C28.6361 26.0165 28.4947 26.0098 28.3455 26.0028L28.3402 26.0025C28.0065 25.9875 27.5913 25.9681 27.1857 25.6439C26.9082 25.4216 26.693 25.0991 26.5036 24.8147C26.5001 24.8094 26.4966 24.8041 26.493 24.7989C26.4446 24.7264 26.3974 24.6557 26.3511 24.5903C26.2484 24.4458 26.1563 24.2704 26.067 24.1003C26.066 24.0983 26.065 24.0964 26.064 24.0945L26.0629 24.0924C25.9401 23.8584 25.7874 23.5673 25.654 23.4706C25.6128 23.441 25.5661 23.4212 25.4748 23.4212C25.3975 23.4212 25.3046 23.4348 25.2061 23.4498C25.0066 23.4794 24.7512 23.5077 24.5301 23.4665C24.0033 23.3677 23.7009 22.9305 23.4581 22.579C23.1366 22.1132 22.999 21.9592 22.6796 22.0546C22.5451 22.0946 22.4342 22.1466 22.3174 22.2013L22.3128 22.2034C22.067 22.3192 21.7881 22.4506 21.3297 22.4506C21.0217 22.4506 20.8851 22.5144 20.6597 22.6197L20.6585 22.6202C20.5212 22.6846 20.3659 22.7575 20.1578 22.8235C19.5547 23.0166 19.0085 22.8978 18.6342 22.5014C18.3645 22.215 18.1966 21.7995 18.1517 21.3231L18.1101 21.3234C17.757 21.3234 17.2237 21.3234 16.9182 20.9475C16.736 20.7241 16.6825 20.4241 16.7585 20.0559C16.9128 19.3115 17.6191 18.7503 18.4016 18.7503C18.8062 18.7506 19.0962 18.9125 19.3295 19.0428L19.3313 19.0438L19.3325 19.0445C19.4975 19.1368 19.6399 19.2165 19.8108 19.239C19.929 19.2546 20.0312 19.2567 20.0792 19.2516C20.0901 19.1971 20.0986 19.1089 20.1051 19.0397L20.1056 19.0346C20.1174 18.9135 20.1321 18.7629 20.1664 18.6004C20.292 18.0079 20.6326 17.8308 20.9333 17.6742C21.0341 17.6224 21.1383 17.5679 21.2462 17.4927C21.5299 17.2955 21.8006 17.0479 22.0871 16.7857C22.274 16.6147 22.4678 16.438 22.6667 16.2745C22.7517 16.2047 22.8316 16.1345 22.9091 16.0664C22.9132 16.0628 22.9173 16.0592 22.9214 16.0556C23.2923 15.7293 23.6757 15.3925 24.32 15.3057C24.5196 15.2784 24.8087 15.2876 25.1203 15.3036C25.2824 15.3115 25.4489 15.3207 25.61 15.3207C26.0044 15.3207 26.1413 15.2621 26.1876 15.2273C26.4015 15.0659 26.3729 14.7332 26.3109 14.4822C26.1311 13.7541 25.5463 13.1231 25.3498 13.0758C23.799 13.3492 22.307 13.8621 20.9145 14.5997C17.394 16.5521 15.352 19.6677 14.7949 20.6035ZM33.4232 15.1058C33.5744 15.1058 33.7069 15.1228 33.8288 15.1582C34.5208 15.3578 34.6036 15.8849 34.6642 16.2698C34.665 16.2751 34.6659 16.2805 34.6667 16.2859C34.6796 16.3677 34.6932 16.454 34.7139 16.5425C34.7837 16.8391 34.9452 17.1034 35.1161 17.3833C35.3535 17.7722 35.6225 18.2129 35.6423 18.7816C35.6634 19.3973 35.4103 19.809 35.1658 20.2068C35.1617 20.2135 35.1575 20.2203 35.1534 20.227C35.0878 20.3337 35.0205 20.4431 34.9577 20.5613C34.7803 20.8944 34.7807 21.1719 34.781 21.632V21.714C34.7803 22.214 34.7803 22.2909 35.0599 22.5286C35.5411 22.9376 35.7151 23.1556 36.0363 23.7566C36.4245 24.4813 36.9976 24.6356 37.9862 24.6785C39.2923 24.7354 39.9219 25.017 40.2032 26.5307C40.3575 27.3654 40.4998 28.6026 39.9485 29.7063C39.5405 30.5226 39.4142 30.9227 39.4142 31.8333C39.4142 31.9811 39.4186 32.132 39.4237 32.2832C39.4238 32.2856 39.4239 32.2879 39.4239 32.2903C39.4341 32.6123 39.4446 32.9456 39.4121 33.2762C39.3702 33.6954 39.2051 34.0169 39.059 34.3003C39.0567 34.3048 39.0544 34.3093 39.0521 34.3137C38.9957 34.4238 38.9423 34.5282 38.8952 34.6388C38.792 34.8819 38.8138 34.995 38.8247 35.0096C38.8298 35.0157 38.8703 35.0382 38.9629 35.0382C39.139 35.0382 39.3624 34.9575 39.5609 34.8216C40.1654 34.4092 40.8046 33.8889 41.4098 33.3174C41.7711 32.9759 42.097 32.6006 42.49 32.0683C42.6051 31.7067 43.2045 29.6879 43.1272 27.0616C42.8765 22.9587 41.0185 19.2151 37.8943 16.5201C36.5699 15.4541 34.9823 14.5224 33.176 13.7521C33.0847 13.7187 32.9928 13.6867 32.9002 13.6547C32.753 13.7293 32.4319 14.1444 32.3778 14.6164C32.3325 15.0152 32.514 15.0901 32.5824 15.1184C32.6768 15.1572 32.8589 15.1477 33.0606 15.1282L33.0662 15.1277C33.1803 15.117 33.2993 15.1058 33.4232 15.1058Z" fill="#F5A621"/>
<path d="M14.3641 21.3752C13.3802 23.4021 12.8446 25.6582 12.8446 28.0002C12.8446 34.2669 16.6686 39.6574 22.1051 41.9618C22.1678 41.0873 22.445 40.4883 23.6008 40.0681C23.8834 39.9649 23.9281 39.8995 24.0759 39.6833C24.1406 39.5882 24.2209 39.4704 24.334 39.3338C24.7685 38.8094 25.4295 38.5727 25.9812 38.7597C26.7934 39.0345 26.6715 39.844 26.6058 40.2785L26.6003 40.3136C26.586 40.4079 26.57 40.491 26.5544 40.5646C26.5762 40.5666 26.6 40.5683 26.6266 40.5697C27.5529 40.6269 28.1744 40.3204 28.9794 39.8688C29.2863 39.6969 29.5808 39.6131 29.8791 39.6131C30.2132 39.6131 30.5132 39.7129 30.862 39.8624C31.2938 40.0487 31.6854 40.0837 32.2572 40.0837C32.3405 40.0837 32.4201 40.0812 32.4989 40.0787L32.5225 40.0779L32.5256 40.0778C32.6178 40.0748 32.7091 40.0718 32.7987 40.0718C33.225 40.0718 33.7134 40.1345 34.1033 40.5959C34.144 40.6438 34.1949 40.7009 34.2503 40.7633L34.2566 40.7703C34.5041 41.0471 34.7129 41.2906 34.8464 41.5178C37.992 39.9182 40.508 37.2531 41.9158 34.0002C41.3008 34.5747 40.6531 35.0985 40.037 35.5191C39.6934 35.7534 39.3117 35.8824 38.9626 35.8824C38.5924 35.8824 38.2931 35.7377 38.1191 35.4748C37.9811 35.2654 37.8681 34.8928 38.117 34.3071C38.1776 34.164 38.2437 34.0363 38.3074 33.9134C38.4348 33.6651 38.5448 33.4509 38.5703 33.1918C38.5981 32.9154 38.5888 32.6235 38.579 32.3148L38.5788 32.3098L38.5777 32.276C38.573 32.1265 38.5682 31.9787 38.5682 31.8327C38.5682 30.7671 38.7317 30.2505 39.1921 29.328C39.6297 28.4517 39.5044 27.3994 39.3716 26.6843C39.1891 25.6998 39.029 25.5694 37.9488 25.522C36.9506 25.4788 35.9246 25.3374 35.2911 24.1547C35.0167 23.6422 34.9148 23.5138 34.5123 23.1719C33.9344 22.6812 33.9347 22.2749 33.9351 21.713V21.6514V21.6494C33.9351 21.1214 33.9351 20.6819 34.2113 20.1635C34.2886 20.0185 34.3683 19.8887 34.4456 19.7631C34.657 19.4191 34.81 19.1705 34.7977 18.8099C34.7858 18.4629 34.6046 18.1659 34.3948 17.8226C34.2058 17.5134 33.9916 17.163 33.8912 16.7349C33.8643 16.6192 33.8459 16.5071 33.8292 16.4005C33.7713 16.0324 33.7519 16.0147 33.5945 15.9694C33.4951 15.9408 33.3245 15.9513 33.1402 15.9691C33.0238 15.9803 32.9039 15.9919 32.7786 15.9919C32.5807 15.9919 32.4104 15.9616 32.2592 15.8992C31.6796 15.6595 31.4198 15.0813 31.5645 14.3511C31.6316 14.0116 31.7852 13.6598 31.9946 13.3768C30.2013 12.8881 28.3055 12.7339 26.4389 12.9249C26.7195 13.2733 26.9453 13.6959 27.0652 14.0545C27.3315 14.8517 27.1966 15.5253 26.695 15.9026C26.3851 16.1356 25.9519 16.1652 25.6093 16.1652C25.4349 16.1652 25.2534 16.1561 25.0779 16.1473L25.076 16.1472C24.8247 16.1346 24.5686 16.1243 24.4321 16.1427C24.0411 16.1955 23.8055 16.4029 23.4789 16.6903C23.3903 16.768 23.2994 16.8477 23.2023 16.9273C23.0208 17.0765 22.8444 17.2379 22.6571 17.4096C22.3626 17.6789 22.0581 17.9572 21.7278 18.1867C21.5752 18.2929 21.4349 18.3658 21.3222 18.4244C21.0787 18.5511 21.0348 18.5742 20.9922 18.7758C20.9677 18.8904 20.9567 19.0031 20.9461 19.1119L20.9452 19.1211C20.9122 19.463 20.8512 20.1002 20.0124 20.1002C19.9184 20.1002 19.8159 20.0927 19.6991 20.0774C19.3671 20.0331 19.1178 19.8938 18.9179 19.7818C18.7057 19.6629 18.5774 19.5959 18.4013 19.5959C18.0172 19.5959 17.6586 19.8731 17.5853 20.2272C17.5557 20.3692 17.5758 20.4193 17.5758 20.4193C17.6048 20.4425 17.7256 20.4782 18.1094 20.4782L18.3243 20.4772C18.4156 20.4772 18.5048 20.4786 18.5893 20.4833C18.7017 20.4898 18.8062 20.5402 18.8808 20.6246C18.9554 20.7084 18.9938 20.8184 18.987 20.9308C18.9625 21.3449 19.0623 21.7246 19.2482 21.9218C19.4015 22.0846 19.6116 22.1115 19.8994 22.0192C20.056 21.9695 20.1742 21.9143 20.2992 21.8557C20.5614 21.7328 20.8325 21.6061 21.312 21.6061C21.5977 21.6061 21.739 21.54 21.9519 21.4396C22.0871 21.3759 22.2403 21.304 22.4382 21.2455C22.5788 21.2036 22.716 21.1828 22.8468 21.1828C23.5187 21.1828 23.8698 21.6905 24.1521 22.0992C24.3309 22.358 24.4998 22.6022 24.6848 22.6369C24.7876 22.656 24.9289 22.6379 25.0791 22.6155L25.0853 22.6145C25.2084 22.5961 25.3358 22.577 25.4738 22.577C25.7316 22.577 25.9519 22.6458 26.1478 22.7868C26.4434 22.9999 26.6392 23.3732 26.8118 23.7028L26.8177 23.7141C26.8962 23.8638 26.9702 24.0049 27.0397 24.1023C27.0935 24.1786 27.149 24.2613 27.2058 24.3465C27.3615 24.5801 27.5379 24.8443 27.7133 24.985C27.8955 25.1307 28.0667 25.1447 28.3783 25.1593C28.55 25.1668 28.7448 25.176 28.9566 25.2223C29.3799 25.316 30.0739 25.6977 30.2776 26.1721C30.5929 26.908 30.0937 27.4345 29.7957 27.7492C29.7334 27.8146 29.6731 27.8783 29.6193 27.9426C29.3955 28.213 29.3966 28.733 29.3976 29.2357L29.3976 29.2377C29.3993 29.8456 29.401 30.4739 28.9869 30.8536C28.7627 31.0587 28.4373 31.1609 28.1224 31.2598L28.1199 31.2605C27.9445 31.3147 27.7633 31.3719 27.6615 31.4308C27.4081 31.5783 27.0775 31.8289 26.9392 32.1865C26.8859 32.3243 26.85 32.4513 26.8155 32.5739L26.8139 32.5795C26.7263 32.8918 26.6354 33.2146 26.3024 33.5664C26.1985 33.6757 26.0882 33.7275 26.0218 33.7578C26.0156 33.7605 26.0095 33.7636 26.003 33.7659C26 33.8014 25.9993 33.8555 25.9993 33.895C25.9979 34.0663 25.9962 34.302 25.8518 34.4978C25.687 34.7215 25.465 34.8397 25.2865 34.9343C25.1193 35.0236 25.0137 35.0832 24.9504 35.1829C24.7627 35.4779 24.679 35.8756 24.7467 36.1501C24.7686 36.2386 24.8073 36.3552 24.8483 36.4788L24.8516 36.4889L24.852 36.4901C25.0331 37.0351 25.2583 37.7129 24.9313 38.2288C24.7573 38.5043 24.4658 38.6681 24.0656 38.7171C23.9883 38.726 23.9151 38.7307 23.845 38.7307C22.6256 38.7307 22.3917 37.5051 22.2367 36.6932L22.2366 36.6922C22.1865 36.4283 22.1392 36.179 22.0738 36.019C21.9685 35.7605 21.8119 35.5354 21.6457 35.2967C21.391 34.9306 21.1022 34.5155 21.0099 33.9495C20.9261 33.436 20.9254 32.871 21.0082 32.3581C21.0356 32.188 21.0935 32.0139 21.1497 31.845L21.1529 31.8354C21.2336 31.5936 21.3252 31.3191 21.2827 31.1672C21.2112 30.9105 20.8897 30.6792 20.5498 30.4351C20.1619 30.1558 19.7216 29.8388 19.4962 29.362C19.4243 29.2101 19.3695 29.0722 19.3218 28.951C19.2295 28.7174 19.1566 28.5331 18.9942 28.324C18.9118 28.2181 18.8164 28.1112 18.7156 27.9981C18.4881 27.7424 18.2532 27.4781 18.0972 27.1543C17.9184 26.7831 17.743 26.0151 17.9129 25.4699C17.992 25.2159 18.1527 25.0218 18.2944 24.8508C18.3628 24.7681 18.4156 24.7017 18.4537 24.6451C18.0018 24.4922 17.7263 24.3223 17.3146 23.8132C17.0551 23.4924 16.9335 23.4852 16.531 23.461L16.5281 23.4609C16.3868 23.4524 16.227 23.4428 16.0379 23.4168C15.2574 23.3089 15.0962 22.8115 14.9665 22.4112L14.9662 22.4101C14.9291 22.2943 14.8902 22.1748 14.8361 22.0553C14.722 21.8063 14.5487 21.5768 14.3641 21.3752Z" fill="#F5A621"/>
</svg>
