<svg width="56" height="56" viewBox="0 0 56 56" fill="none" xmlns="http://www.w3.org/2000/svg">
<circle opacity="0.1" cx="28" cy="28" r="28" fill="#F5A621"/>
<path fill-rule="evenodd" clip-rule="evenodd" d="M25.3413 28.065H20.934C19.2002 28.065 17.6606 27.0279 17.0109 25.4228L14.2598 19.2151C14.7173 18.8523 15.2874 18.6265 15.9136 18.6265H22.9406V17.1755C22.9406 16.2531 23.7585 15.5027 24.7639 15.5027H31.2405C32.2459 15.5027 33.0638 16.2531 33.0638 17.1755V18.6265H40.0859C40.6937 18.6265 41.2475 18.8367 41.6971 19.1779L38.9935 25.4231C38.3439 27.0279 36.8042 28.065 35.0704 28.065H30.769V27.1987C30.769 26.3003 30.0428 25.5742 29.1505 25.5742H26.9659C26.0675 25.5742 25.3413 26.3003 25.3413 27.1987V28.065ZM24.7639 16.7335C24.443 16.7335 24.1714 16.9358 24.1714 17.1755V18.6265H31.833V17.1755C31.833 16.9358 31.5614 16.7335 31.2405 16.7335H24.7639ZM40.1341 25.8846L42.561 20.2786C42.6944 20.598 42.7689 20.9482 42.7689 21.3158V37.808C42.7689 39.2912 41.569 40.4973 40.0859 40.4973H15.9136C14.4366 40.4973 13.2305 39.2912 13.2305 37.808V21.3158C13.2305 20.9743 13.3007 20.6506 13.4172 20.3498L15.8703 25.8846C16.7086 27.9569 18.696 29.2958 20.934 29.2958H25.3413V30.1034C25.3413 30.9958 26.0674 31.7219 26.9659 31.7219H29.1505C30.0428 31.7219 30.7689 30.9958 30.7689 30.1034V29.2958H35.0704C37.3084 29.2958 39.2957 27.9569 40.1341 25.8846Z" fill="#F5A621"/>
</svg>
