<svg width="56" height="56" viewBox="0 0 56 56" fill="none" xmlns="http://www.w3.org/2000/svg">
<circle opacity="0.1" cx="28" cy="28" r="28" fill="#F5A621"/>
<path d="M30.2126 35.7092C31.0752 35.7132 31.9062 35.3862 32.5328 34.7961C33.1594 34.206 33.5333 33.3983 33.5769 32.5408C33.5769 32.5266 33.5769 32.5123 33.5769 32.4951L36.8408 28.8464C37.1722 28.464 37.6389 28.2233 38.1439 28.1743C38.649 28.1253 39.1536 28.2718 39.553 28.5833C39.7507 28.7461 39.9136 28.9466 40.0322 29.173C40.1509 29.3994 40.2227 29.6472 40.2436 29.9017C40.2645 30.1562 40.234 30.4123 40.1539 30.6549C40.0737 30.8975 39.9456 31.1216 39.7771 31.3141L33.2609 38.7488C32.8315 39.2386 32.3015 39.6312 31.7068 39.9C31.1121 40.1688 30.4664 40.3077 29.8132 40.3072H20.0188L18.318 42L12.25 36.1123L16.597 31.8231C17.4797 30.9499 18.5917 30.3417 19.8056 30.0681C21.0194 29.7945 22.2862 29.8666 23.4608 30.2761L24.4147 30.6107H30.2901C30.538 30.6106 30.7834 30.66 31.0117 30.7561C31.24 30.8522 31.4466 30.993 31.6192 31.1701C31.7918 31.3472 31.9269 31.557 32.0164 31.7871C32.1059 32.0172 32.1481 32.2628 32.1404 32.5094C32.1087 32.9943 31.8909 33.4485 31.5321 33.778C31.1732 34.1075 30.7007 34.287 30.2126 34.2794H26.6873C26.4968 34.2794 26.3141 34.3547 26.1794 34.4888C26.0447 34.6229 25.969 34.8047 25.969 34.9943C25.969 35.1839 26.0447 35.3657 26.1794 35.4998C26.3141 35.6338 26.4968 35.7092 26.6873 35.7092H30.2126ZM26.6557 22.0294C27.1298 22.2969 27.6246 22.5264 28.1353 22.7157C28.3537 22.8015 28.572 22.8901 28.7875 22.9845C29.0447 23.0938 29.2855 23.2382 29.5029 23.4134C29.6295 23.4996 29.7295 23.6191 29.7917 23.7586C29.854 23.8981 29.8761 24.0521 29.8555 24.2034C29.8349 24.3547 29.7725 24.4973 29.6753 24.6153C29.578 24.7333 29.4497 24.8221 29.3047 24.8717C28.9149 25.0349 28.488 25.0902 28.0692 25.0319C27.3781 24.9565 26.7064 24.7569 26.0868 24.4428C25.9574 24.3632 25.8105 24.3161 25.6587 24.3056C25.3139 24.3056 25.2076 24.6516 25.1473 24.8374C25.0352 25.1949 24.9347 25.5551 24.837 25.9154C24.6761 26.5045 24.7767 26.7247 25.3312 26.9935C25.9405 27.2688 26.5871 27.4538 27.2504 27.5425C27.3558 27.554 27.4597 27.5761 27.5607 27.6083C27.5825 27.7184 27.5912 27.8307 27.5865 27.9428V28.6491C27.5808 28.7392 27.5942 28.8296 27.6259 28.9142C27.6577 28.9988 27.7071 29.0757 27.7709 29.14C27.8346 29.2043 27.9113 29.2544 27.9959 29.2871C28.0805 29.3198 28.1711 29.3343 28.2617 29.3297H28.7501H29.3248C29.4133 29.3345 29.5019 29.3204 29.5844 29.2881C29.667 29.2559 29.7416 29.2064 29.8032 29.1429C29.8648 29.0794 29.9119 29.0035 29.9414 28.9202C29.9709 28.837 29.9821 28.7484 29.9741 28.6605C29.9741 28.5547 29.9741 28.4461 29.9741 28.3403C29.9741 28.123 29.9741 27.9028 29.9741 27.6855C29.9741 27.4681 30.0258 27.3995 30.2614 27.3337C31.0228 27.1347 31.7015 26.7014 32.2007 26.0956C32.5228 25.7089 32.7553 25.2562 32.8814 24.7699C33.0075 24.2835 33.0243 23.7754 32.9305 23.2819C32.825 22.7558 32.6042 22.2593 32.2839 21.8278C31.9636 21.3963 31.5516 21.0405 31.0774 20.7855C30.5371 20.5019 29.9807 20.2498 29.411 20.0306L29.1926 19.942C28.8589 19.8088 28.5456 19.6297 28.2617 19.4101C28.1635 19.3394 28.0854 19.2445 28.0351 19.1347C27.9847 19.025 27.9638 18.9041 27.9744 18.7839C27.9974 18.6611 28.0521 18.5464 28.1332 18.4511C28.2143 18.3558 28.319 18.2833 28.437 18.2406C28.609 18.1727 28.7921 18.1368 28.9771 18.1348C29.737 18.089 30.4959 18.2387 31.1808 18.5694C31.8876 18.9097 32.0427 18.3979 32.1002 18.1806C32.195 17.8946 32.2783 17.6087 32.3616 17.3084L32.4593 16.9653C32.4891 16.8846 32.5023 16.7989 32.4981 16.7131C32.4939 16.6272 32.4724 16.5431 32.4348 16.4658C32.3973 16.3884 32.3445 16.3193 32.2796 16.2627C32.2147 16.206 32.139 16.163 32.0571 16.136C31.5703 15.9223 31.0573 15.7732 30.5315 15.6928C30.0574 15.6185 30.0574 15.6185 30.0574 15.1438C30.0574 14.1458 29.9798 14 29.0001 14H28.4715C27.8968 14.0172 27.7417 14.1859 27.7273 14.7463C27.7273 14.8779 27.7273 15.0065 27.7273 15.1352V15.344C27.7273 15.7643 27.7273 15.7643 27.3079 15.9158C25.7794 16.4677 24.9577 17.5086 24.8657 19.0069C24.7824 20.268 25.3714 21.2631 26.6557 22.0294Z" fill="#F5A621"/>
</svg>
