<svg width="56" height="56" viewBox="0 0 56 56" fill="none" xmlns="http://www.w3.org/2000/svg">
<circle opacity="0.1" cx="28" cy="28" r="28" fill="#F5A621"/>
<path fill-rule="evenodd" clip-rule="evenodd" d="M44 28C44 19.0303 36.7273 12 28 12C19.0303 12 12 19.2727 12 28C12 36.9697 19.2727 44 28 44C36.9697 44 44 36.7273 44 28ZM13.4545 28C13.4545 20 20 13.4545 28 13.4545C36 13.4545 42.5455 20 42.5455 28C42.5455 36 36 42.5455 28 42.5455C20 42.5455 13.4545 36 13.4545 28ZM41 28C41 35.1797 35.1797 41 28 41C20.8203 41 15 35.1797 15 28C15 20.8203 20.8203 15 28 15C35.1797 15 41 20.8203 41 28ZM29.4004 30.3818C29.4004 30.0081 29.2956 29.7119 29.0859 29.4932C28.8809 29.2699 28.5299 29.0648 28.0332 28.8779C27.5365 28.6911 27.1081 28.5065 26.748 28.3242C26.388 28.1374 26.0781 27.9255 25.8184 27.6885C25.5632 27.4469 25.3626 27.1644 25.2168 26.8408C25.0755 26.5173 25.0049 26.1322 25.0049 25.6855C25.0049 24.9154 25.251 24.2842 25.7432 23.792C26.2354 23.2998 26.8893 23.0127 27.7051 22.9307V21.4678H28.7988V22.9512C29.6055 23.0651 30.2367 23.4023 30.6924 23.9629C31.1481 24.5189 31.376 25.2412 31.376 26.1299H29.4004C29.4004 25.583 29.2865 25.1751 29.0586 24.9062C28.8353 24.6328 28.5345 24.4961 28.1562 24.4961C27.7826 24.4961 27.4932 24.6032 27.2881 24.8174C27.083 25.027 26.9805 25.3187 26.9805 25.6924C26.9805 26.0387 27.0807 26.3167 27.2812 26.5264C27.4818 26.736 27.8532 26.9502 28.3955 27.1689C28.9424 27.3877 29.3913 27.5951 29.7422 27.791C30.0931 27.9824 30.3893 28.2012 30.6309 28.4473C30.8724 28.6888 31.057 28.9668 31.1846 29.2812C31.3122 29.5911 31.376 29.9534 31.376 30.3682C31.376 31.1429 31.1344 31.7718 30.6514 32.2549C30.1683 32.738 29.5029 33.0228 28.6553 33.1094V34.4697H27.5684V33.1162C26.6341 33.016 25.9095 32.6855 25.3945 32.125C24.8841 31.5599 24.6289 30.8102 24.6289 29.876H26.6045C26.6045 30.4183 26.7321 30.8353 26.9873 31.127C27.2471 31.4141 27.6185 31.5576 28.1016 31.5576C28.5026 31.5576 28.8193 31.4528 29.0518 31.2432C29.2842 31.029 29.4004 30.7419 29.4004 30.3818Z" fill="#F5A621"/>
</svg>
