<svg width="56" height="56" viewBox="0 0 56 56" fill="none" xmlns="http://www.w3.org/2000/svg">
<path d="M6.5625 32.375C11.5194 43.8047 28 54.25 28 54.25L27.7595 29.75H5.58664C5.88169 30.6717 6.20601 31.553 6.5625 32.375Z" fill="#CCD0D5"/>
<path d="M40.0312 7C34.9313 5.61979 27.5625 1.75 27.5625 1.75L27.7595 29.75H49.9323C52.5754 21.0341 52.5 8.75 52.5 8.75C52.5 8.75 44.7776 8.28452 40.0312 7Z" fill="#CCD0D5"/>
<path d="M28 54.25C28 54.25 11.5194 43.8047 6.5625 32.375C6.20601 31.553 5.88169 30.6717 5.58664 29.75M28 54.25C28 54.25 44.2457 43.7669 49 32.375C49.3433 31.5523 49.653 30.6711 49.9323 29.75M28 54.25L27.7595 29.75M27.5625 1.75C27.5625 1.75 20.1937 5.61979 15.0938 7C10.3474 8.28452 2.625 8.75 2.625 8.75C2.625 8.75 2.80158 21.0497 5.58664 29.75M27.5625 1.75C27.5625 1.75 34.9313 5.61979 40.0312 7C44.7776 8.28452 52.5 8.75 52.5 8.75C52.5 8.75 52.5754 21.0341 49.9323 29.75M27.5625 1.75L27.7595 29.75M5.58664 29.75H27.7595M49.9323 29.75H27.7595" stroke="#CCD0D5" stroke-width="1.5" stroke-linecap="square" stroke-linejoin="round"/>
</svg>
