<svg width="56" height="56" viewBox="0 0 56 56" fill="none" xmlns="http://www.w3.org/2000/svg">
<path opacity="0.1" fill-rule="evenodd" clip-rule="evenodd" d="M3.11133 8.81492C3.11133 8.81492 10.8187 8.3322 15.5557 7.00011C20.6457 5.56878 28.0001 1.55566 28.0001 1.55566C28.0001 1.55566 35.3545 5.56878 40.4445 7.00011C45.1815 8.3322 52.8889 8.81492 52.8889 8.81492C52.8889 8.81492 52.9642 21.554 50.3262 30.5927C50.0475 31.5479 49.7384 32.4618 49.3957 33.3149C44.6507 45.1287 28.4368 56.0001 28.4368 56.0001C28.4368 56.0001 11.9884 45.168 7.04113 33.3149C6.68534 32.4625 6.36165 31.5485 6.06718 30.5927C3.28756 21.5702 3.11133 8.81492 3.11133 8.81492Z" fill="#F5A621"/>
<path d="M32.7091 33.03V35.25H23.1091V33.03H26.6251V22.914C26.6251 22.514 26.6371 22.102 26.6611 21.678L24.1651 23.766C24.0211 23.878 23.8771 23.95 23.7331 23.982C23.5971 24.006 23.4651 24.006 23.3371 23.982C23.2171 23.958 23.1091 23.918 23.0131 23.862C22.9171 23.798 22.8451 23.73 22.7971 23.658L21.8611 22.374L27.1531 17.874H29.5891V33.03H32.7091Z" fill="#F5A621"/>
</svg>
