<svg width="56" height="56" viewBox="0 0 56 56" fill="none" xmlns="http://www.w3.org/2000/svg">
<path opacity="0.1" fill-rule="evenodd" clip-rule="evenodd" d="M3.11133 8.81492C3.11133 8.81492 10.8187 8.3322 15.5557 7.00011C20.6457 5.56878 28.0001 1.55566 28.0001 1.55566C28.0001 1.55566 35.3545 5.56878 40.4445 7.00011C45.1815 8.3322 52.8889 8.81492 52.8889 8.81492C52.8889 8.81492 52.9642 21.554 50.3262 30.5927C50.0475 31.5479 49.7384 32.4618 49.3957 33.3149C44.6507 45.1287 28.4368 56.0001 28.4368 56.0001C28.4368 56.0001 11.9884 45.168 7.04113 33.3149C6.68534 32.4625 6.36165 31.5485 6.06718 30.5927C3.28756 21.5702 3.11133 8.81492 3.11133 8.81492Z" fill="#F5A621"/>
<path d="M21.5851 22.734C21.7051 21.902 21.9371 21.174 22.2811 20.55C22.6251 19.918 23.0531 19.394 23.5651 18.978C24.0851 18.554 24.6771 18.238 25.3411 18.03C26.0131 17.814 26.7331 17.706 27.5011 17.706C28.3011 17.706 29.0211 17.822 29.6611 18.054C30.3091 18.278 30.8611 18.594 31.3171 19.002C31.7731 19.402 32.1211 19.874 32.3611 20.418C32.6091 20.962 32.7331 21.55 32.7331 22.182C32.7331 22.734 32.6691 23.222 32.5411 23.646C32.4211 24.062 32.2451 24.426 32.0131 24.738C31.7811 25.05 31.4931 25.314 31.1491 25.53C30.8051 25.746 30.4171 25.926 29.9851 26.07C31.0251 26.398 31.8011 26.898 32.3131 27.57C32.8251 28.242 33.0811 29.086 33.0811 30.102C33.0811 30.966 32.9211 31.73 32.6011 32.394C32.2811 33.058 31.8491 33.618 31.3051 34.074C30.7611 34.522 30.1291 34.862 29.4091 35.094C28.6971 35.326 27.9411 35.442 27.1411 35.442C26.2691 35.442 25.5091 35.342 24.8611 35.142C24.2131 34.942 23.6491 34.646 23.1691 34.254C22.6891 33.862 22.2811 33.382 21.9451 32.814C21.6091 32.246 21.3211 31.59 21.0811 30.846L22.3891 30.306C22.7331 30.162 23.0531 30.126 23.3491 30.198C23.6531 30.262 23.8731 30.422 24.0091 30.678C24.1531 30.958 24.3091 31.234 24.4771 31.506C24.6531 31.778 24.8611 32.022 25.1011 32.238C25.3411 32.446 25.6211 32.618 25.9411 32.754C26.2691 32.882 26.6571 32.946 27.1051 32.946C27.6091 32.946 28.0491 32.866 28.4251 32.706C28.8011 32.538 29.1131 32.322 29.3611 32.058C29.6171 31.794 29.8051 31.502 29.9251 31.182C30.0531 30.854 30.1171 30.526 30.1171 30.198C30.1171 29.782 30.0731 29.406 29.9851 29.07C29.8971 28.726 29.7131 28.434 29.4331 28.194C29.1531 27.954 28.7491 27.766 28.2211 27.63C27.7011 27.494 27.0011 27.426 26.1211 27.426V25.314C26.8491 25.306 27.4531 25.238 27.9331 25.11C28.4131 24.982 28.7931 24.806 29.0731 24.582C29.3611 24.35 29.5611 24.074 29.6731 23.754C29.7851 23.434 29.8411 23.082 29.8411 22.698C29.8411 21.882 29.6131 21.262 29.1571 20.838C28.7011 20.414 28.0931 20.202 27.3331 20.202C26.9811 20.202 26.6571 20.254 26.3611 20.358C26.0651 20.454 25.7971 20.594 25.5571 20.778C25.3251 20.954 25.1291 21.162 24.9691 21.402C24.8091 21.642 24.6891 21.906 24.6091 22.194C24.4731 22.562 24.2931 22.806 24.0691 22.926C23.8531 23.046 23.5451 23.074 23.1451 23.01L21.5851 22.734Z" fill="#F5A621"/>
</svg>
