<svg width="56" height="56" viewBox="0 0 56 56" fill="none" xmlns="http://www.w3.org/2000/svg">
<path opacity="0.1" fill-rule="evenodd" clip-rule="evenodd" d="M3.11133 8.81492C3.11133 8.81492 10.8187 8.3322 15.5557 7.00011C20.6457 5.56878 28.0001 1.55566 28.0001 1.55566C28.0001 1.55566 35.3545 5.56878 40.4445 7.00011C45.1815 8.3322 52.8889 8.81492 52.8889 8.81492C52.8889 8.81492 52.9642 21.554 50.3262 30.5927C50.0475 31.5479 49.7384 32.4618 49.3957 33.3149C44.6507 45.1287 28.4368 56.0001 28.4368 56.0001C28.4368 56.0001 11.9884 45.168 7.04113 33.3149C6.68534 32.4625 6.36165 31.5485 6.06718 30.5927C3.28756 21.5702 3.11133 8.81492 3.11133 8.81492Z" fill="#F5A621"/>
<path d="M32.0611 32.49C32.3811 32.49 32.6331 32.582 32.8171 32.766C33.0091 32.942 33.1051 33.178 33.1051 33.474V35.25H21.2011V34.266C21.2011 34.066 21.2411 33.858 21.3211 33.642C21.4091 33.418 21.5451 33.218 21.7291 33.042L26.9971 27.762C27.4371 27.314 27.8291 26.886 28.1731 26.478C28.5251 26.07 28.8171 25.666 29.0491 25.266C29.2811 24.866 29.4571 24.462 29.5771 24.054C29.7051 23.638 29.7691 23.202 29.7691 22.746C29.7691 22.33 29.7091 21.966 29.5891 21.654C29.4691 21.334 29.2971 21.066 29.0731 20.85C28.8571 20.634 28.5931 20.474 28.2811 20.37C27.9771 20.258 27.6331 20.202 27.2491 20.202C26.8971 20.202 26.5691 20.254 26.2651 20.358C25.9691 20.454 25.7051 20.594 25.4731 20.778C25.2411 20.954 25.0451 21.162 24.8851 21.402C24.7251 21.642 24.6051 21.906 24.5251 22.194C24.3891 22.562 24.2131 22.806 23.9971 22.926C23.7811 23.046 23.4691 23.074 23.0611 23.01L21.5011 22.734C21.6211 21.902 21.8531 21.174 22.1971 20.55C22.5411 19.918 22.9691 19.394 23.4811 18.978C24.0011 18.554 24.5931 18.238 25.2571 18.03C25.9291 17.814 26.6491 17.706 27.4171 17.706C28.2171 17.706 28.9491 17.826 29.6131 18.066C30.2771 18.298 30.8451 18.63 31.3171 19.062C31.7891 19.494 32.1571 20.014 32.4211 20.622C32.6851 21.23 32.8171 21.906 32.8171 22.65C32.8171 23.29 32.7211 23.882 32.5291 24.426C32.3451 24.97 32.0931 25.49 31.7731 25.986C31.4611 26.482 31.0931 26.962 30.6691 27.426C30.2451 27.89 29.8011 28.362 29.3371 28.842L25.4251 32.838C25.8011 32.726 26.1731 32.642 26.5411 32.586C26.9171 32.522 27.2731 32.49 27.6091 32.49H32.0611Z" fill="#F5A621"/>
</svg>
