<svg width="56" height="56" viewBox="0 0 56 56" fill="none" xmlns="http://www.w3.org/2000/svg">
<circle opacity="0.1" cx="28" cy="28" r="28" fill="#F5A621"/>
<path d="M17.6899 32.0586H12.2964L11.271 35.1348H8L13.5576 20.2051H16.4082L21.9966 35.1348H18.7256L17.6899 32.0586ZM13.127 29.5669H16.8594L14.9829 23.9785L13.127 29.5669Z" fill="#F5A621"/>
<path d="M23.3911 35.1348V20.2051H28.6206C30.4321 20.2051 31.8062 20.5537 32.7427 21.251C33.6792 21.9414 34.1475 22.9565 34.1475 24.2964C34.1475 25.0278 33.9595 25.6738 33.5835 26.2344C33.2075 26.7881 32.6846 27.1948 32.0146 27.4546C32.7803 27.646 33.3818 28.0322 33.8193 28.6133C34.2637 29.1943 34.4858 29.9053 34.4858 30.7461C34.4858 32.1816 34.0278 33.2686 33.1118 34.0068C32.1958 34.7451 30.8901 35.1211 29.1948 35.1348H23.3911ZM26.4673 28.6338V32.6636H29.1025C29.8271 32.6636 30.3911 32.4927 30.7944 32.1509C31.2046 31.8022 31.4097 31.3237 31.4097 30.7153C31.4097 29.3481 30.7021 28.6543 29.2871 28.6338H26.4673ZM26.4673 26.46H28.7437C30.2954 26.4326 31.0713 25.814 31.0713 24.604C31.0713 23.9272 30.873 23.4419 30.4766 23.1479C30.0869 22.8472 29.4683 22.6968 28.6206 22.6968H26.4673V26.46Z" fill="#F5A621"/>
<path d="M48.5234 30.1616C48.4072 31.7681 47.8125 33.0327 46.7393 33.9556C45.6729 34.8784 44.2646 35.3398 42.5146 35.3398C40.6006 35.3398 39.0933 34.6973 37.9927 33.4121C36.8989 32.1201 36.3521 30.3496 36.3521 28.1006V27.188C36.3521 25.7524 36.605 24.4878 37.1108 23.394C37.6167 22.3003 38.3379 21.4629 39.2744 20.8818C40.2178 20.2939 41.3115 20 42.5557 20C44.2783 20 45.666 20.4614 46.7188 21.3843C47.7715 22.3071 48.3799 23.6025 48.5439 25.2705H45.4678C45.3926 24.3066 45.1226 23.6094 44.6577 23.1787C44.1997 22.7412 43.499 22.5225 42.5557 22.5225C41.5303 22.5225 40.7612 22.8916 40.2485 23.6299C39.7427 24.3613 39.4829 25.4995 39.4692 27.0444V28.1724C39.4692 29.7856 39.7119 30.9648 40.1973 31.71C40.6895 32.4551 41.4619 32.8276 42.5146 32.8276C43.4648 32.8276 44.1724 32.6123 44.6372 32.1816C45.1089 31.7441 45.3789 31.0708 45.4473 30.1616H48.5234Z" fill="#F5A621"/>
</svg>
