<svg width="56" height="56" viewBox="0 0 56 56" fill="none" xmlns="http://www.w3.org/2000/svg">
<circle opacity="0.1" cx="28" cy="28" r="28" fill="#F5A621"/>
<path d="M8.3125 28C8.3125 22.9259 12.4259 18.8125 17.5 18.8125C22.5741 18.8125 26.6875 22.9259 26.6875 28V29.3125C27.3404 35.2187 32.4198 39.8125 38.5 39.8125C45.0239 39.8125 50.3125 34.5239 50.3125 28V26.6875H47.6875V28C47.6875 33.0741 43.5741 37.1875 38.5 37.1875C33.4259 37.1875 29.3125 33.0741 29.3125 28V26.6875C28.6596 20.7813 23.5802 16.1875 17.5 16.1875C10.9761 16.1875 5.6875 21.4761 5.6875 28V29.3125H8.3125V28Z" fill="#F5A621"/>
<path d="M12.25 27.125C12.25 27.125 13.125 23.625 17.5004 23.625C21.8758 23.625 22.7504 27.125 22.7504 27.125M33.25 29.75C33.25 29.75 34.125 33.25 38.5004 33.25C42.8758 33.25 43.7504 29.75 43.7504 29.75" stroke="#F5A621" stroke-linecap="square" stroke-linejoin="bevel"/>
</svg>
